<?xml version="1.0" encoding="UTF-8"?>
<!DOCTYPE svg PUBLIC "-//W3C//DTD SVG 1.1//EN" "http://www.w3.org/Graphics/SVG/1.1/DTD/svg11.dtd">
<!-- Creator: CorelDRAW X8 -->
<svg xmlns="http://www.w3.org/2000/svg" xml:space="preserve" width="3.86644E+06px" height="1.76389E+06px" version="1.1" style="shape-rendering:geometricPrecision; text-rendering:geometricPrecision; image-rendering:optimizeQuality; fill-rule:evenodd; clip-rule:evenodd"
viewBox="0 0 370447 168929"
 xmlns:xlink="http://www.w3.org/1999/xlink">
 <defs>
  <style type="text/css">
   <![CDATA[
    .fil5 {fill:#2A4586}
    .fil9 {fill:#36D9AB}
    .fil7 {fill:#49F4C3}
    .fil17 {fill:#87A7E6}
    .fil8 {fill:#A4BCEB}
    .fil3 {fill:#C2D5FC}
    .fil11 {fill:#D16051}
    .fil2 {fill:#D6E3FC}
    .fil4 {fill:#D9E5FD}
    .fil12 {fill:#E7E6E6}
    .fil0 {fill:#EAF1FC}
    .fil15 {fill:#EB9049}
    .fil6 {fill:#F7B7A3}
    .fil10 {fill:#FB887A}
    .fil14 {fill:#FCFAFA}
    .fil13 {fill:#FEFEFE}
    .fil1 {fill:white}
    .fil16 {fill:#A4BCEB;fill-rule:nonzero}
   ]]>
  </style>
 </defs>
 <g id="__x0023_Layer_x0020_1">
  <metadata id="CorelCorpID_0Corel-Layer"/>
  <g id="_657842728">
   <path class="fil0" d="M68138 126702l9010 0c5758,-1211 10054,-5590 10054,-10767l0 0c0,-5014 -4029,-9278 -9512,-10642l-56577 0c-11612,0 -21113,-9501 -21113,-21114l0 0c0,-11612 9501,-21113 21113,-21113l54063 0c4411,-1471 7613,-5647 7613,-10535l0 0c0,-4653 -2903,-8661 -6987,-10304l-20086 0c-11613,0 -21113,-9501 -21113,-21114l0 0c0,-11612 9500,-21113 21113,-21113l268994 0c11612,0 21113,9501 21113,21113l0 0c0,11613 -9501,21114 -21113,21114l-5774 0c-4084,1643 -6987,5651 -6987,10304l0 0c0,4888 3203,9064 7613,10535l29772 0c11612,0 21113,9501 21113,21113l0 0c0,11613 -9501,21114 -21113,21114l-51915 0c-5483,1364 -9511,5628 -9511,10642l0 0c0,5177 4296,9556 10054,10767l23328 0c11612,0 21113,9501 21113,21113l0 0c0,11612 -9501,21114 -21113,21114l-253152 0c-11612,0 -21113,-9502 -21113,-21114l0 0c0,-11612 9501,-21113 21113,-21113z"/>
   <g>
    <rect class="fil1" x="216819" y="59362" width="26129" height="16569"/>
    <rect class="fil1" x="245497" y="59362" width="26129" height="16569"/>
    <rect class="fil1" x="274175" y="59362" width="26129" height="16569"/>
    <rect class="fil1" x="216770" y="40028" width="26129" height="16569"/>
    <rect class="fil1" x="274224" y="40028" width="26129" height="16569"/>
    <rect class="fil1" x="245441" y="40028" width="26129" height="16569"/>
    <rect class="fil1" x="216452" y="20874" width="26129" height="16569"/>
    <rect class="fil1" x="273905" y="20874" width="26129" height="16569"/>
    <rect class="fil1" x="245122" y="20874" width="26129" height="16569"/>
    <g>
     <rect class="fil1" x="188123" y="59525" width="26129" height="16569"/>
     <rect class="fil1" x="188074" y="40190" width="26129" height="16569"/>
     <rect class="fil1" x="187755" y="21036" width="26129" height="16569"/>
    </g>
   </g>
   <rect class="fil2" x="182559" y="78018" width="121397" height="3506" rx="5655" ry="5655"/>
   <path class="fil3" d="M259854 78075c-2189,-709 -4227,-1369 -6129,-1984 -1775,-575 -3442,-1114 -5005,-1620 -199,5962 -395,11858 -589,17677 -192,5760 -382,11458 -570,17087 1476,1551 3043,3200 4711,4954 1781,1873 3687,3877 5726,6024 299,-6780 602,-13662 909,-20631 311,-7062 627,-14234 947,-21507z"/>
   <path class="fil4" d="M84106 108831c-1658,-1657 -3881,-2908 -6416,-3538l-56577 0c-11612,0 -21113,-9501 -21113,-21114l0 0c0,-11612 9501,-21113 21113,-21113l54063 0c4411,-1471 7613,-5647 7613,-10535l0 0c0,-4653 -2903,-8661 -6987,-10304l-20086 0c-11613,0 -21113,-9501 -21113,-21114l0 0c0,-11612 9500,-21113 21113,-21113l115981 0 0 35277c0,24518 0,49051 0,73554l-87591 0z"/>
   <rect class="fil5" x="152410" y="14777" width="20885" height="5112" rx="917" ry="808"/>
   <path class="fil3" d="M4749 70878c1245,-1527 2698,-2878 4316,-4009 12315,-820 24457,-1628 36400,-2422l20768 -1381 8943 0c572,-191 1123,-427 1650,-704l12924 -860c14142,-941 28076,-1867 41716,-2774 13365,-889 26541,-1766 39475,-2625 0,271 0,543 0,814 0,274 0,548 0,823 0,277 0,556 0,836 0,281 0,563 0,848 -13134,904 -26481,1823 -40060,2759 -13846,955 -27960,1927 -42358,2920 -14684,1012 -29689,2048 -44996,3102 -12708,876 -25640,1767 -38778,2673z"/>
   <path class="fil3" d="M82118 48740c-445,-1213 -1095,-2328 -1909,-3303l25464 -688c22067,-596 44041,-1190 65909,-1781 0,548 0,1099 0,1651 0,554 0,1111 0,1670 -21797,597 -43715,1197 -65699,1800l-23765 651z"/>
   <path class="fil3" d="M38766 33664c-772,-1039 -1451,-2150 -2025,-3321l134956 0 0 3321 -132931 0z"/>
   <path class="fil4" d="M68138 126702l9010 0c5758,-1211 10054,-5590 10054,-10767l0 0c0,-5014 -4029,-9278 -9512,-10642l-8866 0c16937,-2715 32915,-5275 48012,-7693 28334,-4539 53919,-8640 77088,-12352 -347,4783 -693,9547 -1037,14288 -342,4723 -684,9433 -1024,14117 -23001,5056 -48373,10634 -76427,16804 -20985,4614 -43675,9604 -68279,15015 1175,-10520 10161,-18770 20981,-18770z"/>
   <path class="fil1" d="M72957 105293l-51844 0c-5907,0 -11267,-2460 -15108,-6404 17677,-2307 34198,-4463 49694,-6485 16708,-2179 32309,-4212 46891,-6114 13545,-1768 26317,-3434 38282,-4996 11261,-1470 21926,-2859 32010,-4171 1626,658 3270,1322 4927,1992 1676,678 3371,1363 5082,2055 1733,700 3491,1410 5264,2127 1796,725 3616,1462 5459,2206 -10189,1669 -21002,3443 -32479,5326 -12285,2015 -25434,4172 -39485,6476 -15052,2468 -31241,5125 -48693,7988z"/>
   <path class="fil3" d="M141508 78794c2189,-736 4228,-1419 6130,-2057 1775,-596 3441,-1155 5005,-1680 198,6181 395,12293 589,18326 192,5972 382,11879 570,17714 -1476,1608 -3044,3318 -4712,5136 -1780,1942 -3686,4020 -5725,6245 -299,-7029 -602,-14163 -909,-21388 -312,-7321 -628,-14757 -948,-22296z"/>
   <path class="fil4" d="M231753 118861l26437 8c120,-282 82,109 60,-533 -193,-444 -342,-1066 -528,-1666 -1045,-3358 -2157,-4494 -3411,-5154 -485,-255 -1259,-35 -1775,-35 0,329 16,261 -51,193l-1439 977c-1237,271 -2392,762 -3655,798 -1237,36 -2530,-38 -3760,-388 -1159,-8 -2444,-567 -3616,-913 -1070,-315 -2459,-466 -3474,-1308 -235,443 -454,-560 -1423,411 -717,718 -1425,2244 -2066,3782 -101,244 -153,424 -263,694 -213,521 -336,857 -524,1399 -165,474 -405,967 -512,1735z"/>
   <path class="fil6" d="M214943 111500c9,11 20,26 25,35 154,248 1345,3756 1428,3991l1409 4048 385 1314c105,140 395,1055 450,1290l30 71c139,92 70,75 301,39l1066 -223c460,-112 912,-245 1325,-403 963,-370 1592,-772 2084,-1373 104,151 119,446 159,658 49,268 61,578 182,702l-343 -2223c-121,-692 -308,-1436 -523,-2075 -112,-333 -198,-651 -337,-936 -150,-305 -249,-592 -429,-895 -211,-355 -520,-815 -809,-1126 -163,-176 -233,-139 -239,-423 1178,-98 2914,232 4085,499 1300,295 2551,533 3831,856l7518 1873c1015,175 2404,206 3474,272 1172,72 2457,188 3616,190 -137,-512 283,-3143 -399,-5030 -244,-675 -566,-1276 -908,-1793 -249,-376 -979,-1339 -1249,-1489 -1766,-158 -3598,-170 -5352,-314l-10833 -475c-397,-55 -900,4 -1331,-45 -420,-47 -889,-45 -1383,-42l-1375 -52c-475,0 -951,2 -1426,-1l-1834 -6c-949,50 -1435,-272 -2131,779 -406,613 -545,1577 -467,2307z"/>
   <path class="fil5" d="M151321 84327c718,201 1631,362 2416,392 -244,-1392 -305,-2246 44,-3624 169,-667 685,-2072 1087,-2683l126 -159 139 -281c2207,112 3303,2075 3713,4142 336,128 768,468 1134,541 176,231 226,162 646,373 239,121 405,225 679,289 -99,-147 -202,-177 -345,-317 -152,-149 -199,-214 -334,-380 -1038,-1286 -1648,-3306 -1919,-4955 -62,-375 -150,-808 -195,-1180 -26,-215 -115,-1166 -162,-1264 179,72 53,-48 120,186 168,593 270,1199 510,1934 457,1396 922,2702 1665,3937 167,278 621,1081 966,1122 239,29 417,51 662,51 -152,-227 -871,-541 -1588,-2334 -395,-988 -1316,-4209 -1316,-5303 -87,-136 -76,-167 -73,-357 -49,-213 -57,-499 -100,-794 -49,-335 -82,-432 -82,-824 -166,-270 -143,-889 -177,-1251 -42,-443 -70,-871 -116,-1312l-23 -479c-35,-294 -47,-684 -64,-1002 -28,-528 -105,-555 176,-856 655,-702 1633,-1383 2461,-1920 323,-210 996,-627 1360,-762 233,-91 375,-216 611,-271 -45,-172 -1332,-2005 -1535,-2284 -116,-160 -114,-210 -287,-325l-1256 -680c-1053,-435 -1618,-724 -2885,-985 -1781,-366 -4346,-546 -5528,985l-294 368c-978,1122 -1136,2325 -1348,3795l-265 2892c0,275 -8,426 -36,627l-66 1207c2,465 -14,835 -47,1226 -63,761 50,2951 -67,3802 -124,903 -17,1226 -272,2326 -226,975 -805,2920 -1956,3187 16,190 215,476 306,612 1857,-982 2291,-4844 2344,-7026 25,-1016 203,-1953 203,-2955l51 0c0,2706 -125,7732 -1826,9836 -519,641 -813,551 -1027,654 294,438 1122,1007 1623,1280 303,166 672,334 1011,466 220,86 916,330 1136,333z"/>
   <path class="fil6" d="M242207 74846c1228,120 1408,-205 2277,-505 -226,-162 -380,-1052 -2746,-2137l469 2642z"/>
   <path class="fil5" d="M236927 72828l-10 -1501c-218,-109 -556,-147 -642,-324 -147,-303 174,-421 258,-620 -235,-285 -652,-324 -811,-611 17,-196 196,-370 265,-657 263,-1091 -711,-963 -710,-1886 629,-195 1250,-574 1617,-924 670,-637 527,-607 779,-1715 224,-980 1491,-2608 2206,-2888 -87,782 -217,1514 -280,2316 -68,856 -33,1649 -64,2492 11,85 29,173 25,260 -12,273 22,84 -54,201 134,62 110,482 123,653 125,692 208,1490 473,2137 51,154 114,297 164,411l137 378c142,164 340,582 482,786 176,252 385,486 588,677 -291,310 -1663,545 -2032,798 11,373 755,1806 990,1989 331,257 1282,334 1808,415l-358 -2868c1697,781 1808,1421 1971,1538 92,147 92,97 122,263 217,172 361,604 473,911 111,305 247,744 286,1090l127 1295c47,1233 -377,2923 -1238,3684 -495,439 -654,388 -1022,610 1550,-143 2889,-1910 3122,-2053l1063 -1515c171,342 433,709 646,1085 419,737 861,1655 1068,2495 68,274 261,1246 369,1396 909,673 2658,617 3574,-126 487,-395 1097,-1057 1113,-1740 -195,143 -317,633 -1324,665 -1110,35 -2076,-494 -2709,-1268 -283,-346 -534,-812 -673,-1313 -490,-1772 482,-3257 1213,-4478 461,-769 983,-1832 1271,-2701 359,-1088 615,-2095 695,-3277 83,-1223 45,-2397 -301,-3572 -161,-548 -321,-959 -496,-1490 -775,-2357 -2932,-4312 -5616,-4309l-825 0c-46,4 -91,8 -136,14l-1793 194c-2196,172 -4254,1703 -5578,3386 -973,1237 -1649,2169 -2067,3891 -378,1559 -199,2777 393,4140 187,432 750,1150 1110,1488 79,74 27,25 81,72 46,40 81,63 127,106z"/>
   <path class="fil7" d="M239056 87715c-92,445 -714,2228 -908,2809 -193,578 -503,1482 -750,2028 -26,57 -61,127 -97,204l-2106 4074c283,59 2297,2458 2738,2516 10,2 784,-608 1056,-1158l2765 -7877c57,-481 1828,-5014 2013,-5429 423,-954 726,-1629 1013,-2738 216,-831 519,-2479 431,-3350 -224,136 -1505,1828 -2989,1964 352,-213 504,-164 979,-584 823,-728 1230,-2346 1185,-3526 -888,218 -1838,1260 -2217,1911 -463,794 -851,1996 -1143,2950 -212,690 -1838,6021 -1970,6206z"/>
   <path class="fil7" d="M245722 79685c93,911 -224,2632 -449,3501 -301,1159 -617,1864 -1059,2861 -193,433 -2044,5169 -2104,5672 259,411 1613,4509 1823,5239 720,2490 1569,5440 570,7965 -192,485 -483,1195 -780,1609 166,27 637,382 942,540 346,180 660,334 1040,489 2074,848 4400,930 6576,348 399,-106 801,-276 1172,-364 -42,-457 -228,-1000 -306,-1466l-1950 -10730c-543,-3255 -959,-5936 -1654,-9193l-675 -3010c-108,-150 -301,-1122 -369,-1396 -207,-840 -649,-1758 -1068,-2495 -213,-376 -475,-743 -646,-1085l-1063 1515z"/>
   <g>
    <path class="fil8" d="M247340 122068c0,0 3,-811 0,0zm13244 -917c-249,-1068 -570,-2767 -722,-3861l-390 -2717c-51,-475 -120,-927 -157,-1370 -23,-283 -36,-421 -60,-704l-354 -5044c-14,-496 0,-1030 2,-1530 3,-508 -51,-958 -51,-1527 0,-1128 51,-1806 51,-2902l116 -2991c90,-656 144,-2510 277,-3542l214 -2128c1039,-14893 1426,-14673 -528,-15043 0,356 -179,470 -183,838 -13,1291 -184,2458 -199,3823l-255 5092c-1,295 -47,347 -55,608 -19,651 4,1260 -52,1934l-99 2600c-12,236 -53,314 -52,609 4,958 -106,2305 -101,3209 2,493 -13,908 -48,1327l-1 1985c0,295 -47,347 -54,608 -25,817 80,1923 -6,2693 -78,690 -48,7542 7,8562 13,237 54,314 52,610 -1,387 -36,1002 13,1362 48,349 26,901 74,1250l67 1308c21,872 102,1682 160,2548 22,133 60,52 -60,111l-26437 -2c-42,60 -23,-18 -43,108 -9,60 -9,66 -4,128l200 2048 13600 0 15078 0z"/>
   </g>
   <path class="fil8" d="M200764 116568c63,277 92,3166 18,3337 0,534 51,17234 -20,17724 -242,1665 -558,2822 -988,4359l-1437 3910c-56,-74 -35,31 -51,-156 -79,163 -12,308 -143,574 -340,689 -1524,2705 -1955,2978 -152,331 -725,829 -940,1053 -273,285 -204,243 -324,198 -22,242 -405,470 -697,716 -308,258 -1121,925 -1436,1003 240,299 802,189 1267,185 476,-4 951,-7 1427,-12 716,-7 2086,-77 2591,336l-2612 376c-513,67 -2338,207 -2641,387l644 490c240,161 457,264 726,394 1324,637 4054,1053 5621,1102 253,8 258,46 508,53 183,5 379,-4 564,-3 358,0 643,53 1068,52l3312 -49c324,-9 688,-89 1018,-103 584,-25 1814,-302 1986,-282l2955 -1681c39,-209 96,-247 101,-482 -964,-510 -2538,-2402 -3136,-3229 -743,-1027 -1356,-2086 -1923,-3221 -345,-688 -938,-1966 -1198,-2672 -235,-635 -457,-1212 -677,-1870 -469,-1407 -759,-2627 -1020,-4123 -112,-643 -43,-6738 -43,-7697 0,-3429 0,-6857 0,-10286l93 0c-167,-94 -134,-49 -129,-560 5,-591 -33,-1600 45,-2088l-9 -1630c-140,0 -107,33 -81,-110 -198,-616 -752,-1509 -1066,-1951 -170,-241 -1112,-1514 -1400,-1685l-18 4663z"/>
   <path class="fil6" d="M214943 113809l80 1944c-98,451 22,1214 22,1885l0 1828c387,93 914,118 1324,132 450,15 1039,-61 1436,-24l-1409 -4048c-83,-235 -1274,-3743 -1428,-3991 -5,-9 -16,-24 -25,-35 -125,341 0,1784 0,2309z"/>
   <path class="fil9" d="M239292 89006c-96,466 -746,2329 -949,2936 -201,603 -525,1547 -784,2119 -27,58 -63,132 -101,212l-2200 4257c295,62 2093,2208 2554,2269 2450,-606 3924,-8015 4298,-9080 60,-503 1911,-5239 2104,-5672 442,-997 758,-1702 1059,-2861 225,-869 542,-2590 449,-3501 -708,-708 -496,-565 -862,-2241 -927,228 -1919,1317 -2315,1996 -484,830 -890,2086 -1195,3083 -221,720 -1920,6290 -2058,6483z"/>
   <path class="fil6" d="M179059 114582c-408,514 -693,3717 -690,4430 1,340 1,680 0,1019l511 7637c-2,394 42,651 51,967 10,341 -26,735 1,1068l101 1936c5,337 -1,682 -2,1020 -1,400 53,622 53,966 1,340 -1,681 -3,1021 -1,368 54,563 52,966 -1,340 0,679 0,1019l88 3018c70,507 15,1467 14,2023 -1,592 128,1394 47,1981 -46,328 -548,1029 -658,1411l-74 2055c-85,2476 -14,3138 1449,4688 56,59 80,97 120,134 154,141 41,74 183,98 979,-378 1479,-1523 1938,-1710l-2018 -6283c-241,-722 -223,-493 -129,-1363l1056 -8976c155,-1004 298,-1935 437,-2924l351 -2144c25,-182 81,-576 142,-766 -21,-690 2412,-13726 2607,-14116l12 -193c99,-711 418,-1667 462,-2341 53,-811 -214,-1784 -729,-2007 -230,-190 -540,-133 -917,-133 -334,0 -695,33 -1019,-23 -367,142 -880,772 -1118,1044 -295,338 -619,827 -864,1274 -266,483 -462,922 -678,1461 -214,535 -309,1102 -503,1649l-273 94z"/>
   <rect class="fil8" x="154581" y="121765" width="2443" height="30588"/>
   <path class="fil8" d="M168487 122373c958,0 1058,119 1075,-250 9,-207 13,-283 31,-426 35,-275 62,-537 65,-801 4,-233 26,-251 46,-417 5,-39 12,-159 10,-194l-55 -183 -26502 -71c39,-392 97,-852 116,-1222l145 -2503c22,-198 5,-452 6,-656 0,-306 51,-369 54,-658 21,-1688 100,-3327 100,-5145 0,-1783 0,-3565 0,-5347 0,-1758 -102,-3532 -102,-5296l-94 -2553c-43,-379 -1,-920 -6,-1319 -3,-283 -51,-324 -55,-607 -3,-237 7,-479 4,-717 -3,-282 -51,-324 -55,-607l-98 -3211c0,-295 -46,-347 -54,-608l-352 -7031c-37,-457 -47,-863 -52,-1324 -7,-644 -155,-1560 -155,-2544 -318,0 -510,-41 -867,-49 -1273,141 -1024,1762 209,15321 193,1644 553,5388 555,7135 0,315 54,395 54,710l-51 8252 -343 4291c-345,2646 -481,4012 -996,6693 -37,190 -89,459 -127,637 -49,226 -115,463 -115,700 9208,0 18401,0 27609,0z"/>
   <path class="fil10" d="M151178 83624c0,560 -724,4749 -828,5311 -76,408 -144,877 -220,1325 -79,461 -168,888 -223,1322l-448 2643c-397,2146 -732,4513 -1129,6595l-662 3760c-45,80 43,147 43,147 251,-101 1357,65 1837,63 689,-3 1259,54 1987,54l3037 -8c225,-28 753,-94 987,-100 0,-877 -397,-1420 -81,-3414 124,-778 1863,-5892 2182,-6670 41,-102 -2115,-5993 -2438,-7820 -163,-920 -767,-4016 -830,-4654 -165,-1661 66,-3478 460,-4960l-126 168c-402,644 -919,2125 -1088,2829 -349,1453 -287,2354 -44,3822 -785,-32 -1698,-201 -2416,-413z"/>
   <path class="fil5" d="M219013 125938c228,156 646,1693 737,1966 232,695 465,1343 688,2012 228,685 448,1338 675,2024l2720 8127c198,610 1186,3589 1277,4172 62,394 71,851 110,1217 23,211 -40,320 -39,594l-53 1322c-68,819 -64,1855 -143,2557l-294 5153c-53,270 -94,283 -355,359 -975,284 -4484,921 -4947,1165 -195,102 -263,169 -269,444l7072 -161c208,-77 59,-37 146,-567 235,-1430 880,-3749 1937,-4683 567,-500 1661,-458 1987,230 294,618 65,4693 65,5690 201,0 206,-16 356,-51 0,-383 -85,-675 -48,-1117 27,-328 61,-792 99,-1123 82,-721 180,-1390 318,-2075 131,-649 282,-1334 436,-1958l494 -1887c61,-751 -1033,-1959 -1676,-2461 -132,-103 -219,-164 -350,-262 -641,-479 -2415,-1473 -3144,-1643 0,-383 -708,-5060 -779,-5484 -148,-881 -231,-1880 -385,-2773 -154,-890 -263,-1885 -364,-2793 -102,-909 -242,-1877 -304,-2802 -67,-983 -161,-1930 -266,-2892 -100,-918 -232,-1855 -369,-2788 -22,-145 -329,-2580 -462,-2720 77,396 -46,490 -234,708 -1162,1344 -2900,1950 -4747,1842 64,319 165,351 111,658z"/>
   <path class="fil5" d="M218670 122249l-30 -71c-1406,521 -2422,488 -3923,125l41 5264c-65,455 -19,11482 -19,12832 0,3622 -385,3207 -1212,6172 -392,1406 -1406,5370 -1798,6451 -102,281 -104,219 -182,277 -111,81 -200,112 -322,210l-2955 1681c-452,236 -1156,749 -1610,862 -276,68 -417,124 -478,387 431,0 3747,-537 4358,-634l888 -130c456,-47 1457,-247 1783,-254l1027 -3048c441,-1196 788,-1728 2074,-2000 685,-145 1218,-6 1460,489 289,589 95,2021 73,2775 -5,166 11,346 2,511l-100 1428c-13,164 7,343 -2,507 -12,230 -51,241 -51,509 409,-96 358,-309 437,-735l828 -5181c230,-1660 439,-2268 -485,-3928 -144,-259 -298,-477 -467,-705 -431,-583 -1152,-1461 -1718,-1897 -484,-374 -363,-344 -291,-757 529,-3020 990,-6286 1499,-9348 226,-1359 484,-2739 744,-4043 106,-526 789,-3622 772,-4060 54,-307 -47,-339 -111,-658 1847,108 3585,-498 4747,-1842 188,-218 311,-312 234,-708 53,-277 -43,-831 -96,-1081l-143 157c-50,52 -76,76 -127,126 -1310,1253 -3100,2271 -5052,2109l-538 -1636c183,-3 661,26 743,-156z"/>
   <path class="fil6" d="M177279 74711l-642 84c-568,61 -1231,106 -1870,185 -1004,126 -767,-136 -982,1157 -101,607 -227,1218 -309,1831 -225,1711 -702,3573 -1246,5170 -367,1077 -783,2051 -1264,3014 -487,972 -970,1854 -1552,2726 -293,439 -568,854 -876,1262 -153,204 -304,411 -458,612l-3115 3302c-392,316 -1442,1293 -1827,1382 -38,-164 -90,-222 -151,-357 -117,-255 -446,-1042 -460,-1272 -477,197 -609,217 -984,492 -742,546 -1287,1480 -1769,2205 -5,7 -14,137 -46,68 -4,-8 -16,24 -24,35 196,112 125,74 270,516 66,201 141,393 198,566l1184 3450c634,0 1245,-59 1794,-192 226,-55 347,-120 564,-164 132,-107 907,-430 1147,-569 1640,-951 2547,-2363 2760,-2500l51 -37 968 -1477c1262,-2352 1303,-2320 2328,-5056 719,-1916 1440,-4733 1845,-6762 69,-350 128,-724 208,-1065 1359,-113 2408,-2455 2795,-3622 264,-796 133,-704 463,-861l1785 -813c0,-283 -57,-298 -102,-530 -113,-180 -40,-258 -198,-393 -43,-37 -134,-77 -192,-112 -92,-55 -136,-92 -189,-136 -203,-57 -1576,-903 -1816,-967 111,-152 -66,-60 510,-153 202,-32 380,-88 581,-102l641 -136c529,-108 1017,-142 1274,-526 -8,-360 -108,-401 -494,-344 -189,28 -576,89 -800,89z"/>
   <path class="fil3" d="M159420 114351c-1612,1005 -8563,1480 -9911,-563 -340,-130 -1249,-178 -1448,-766l-1442 594c-1199,736 -2269,2260 -3223,5595 -124,434 -108,498 -239,846l26502 331c-109,-874 -149,-730 -449,-1558l-1508 -3629c-1029,-1983 -1383,-2450 -2526,-2457l-2874 845c-455,317 -981,133 -1448,370l-1434 392z"/>
   <path class="fil5" d="M156086 106561c-305,253 -6423,11501 -6577,12085 1348,486 8299,373 9911,134 433,-273 6591,-2228 7356,-2438 2655,-730 4150,-1065 6843,-1665 280,-62 723,-182 1032,-211l0 319c49,-141 124,-1292 169,-1601 74,-507 173,-972 256,-1471 -1934,170 -3918,475 -5859,701 -1940,225 -5443,-2115 -7376,-1864 -1091,142 -5566,-3939 -5755,-3989z"/>
   <path class="fil11" d="M154649 78253c-435,1406 -691,3129 -509,4703 70,605 739,3541 919,4414 1325,6411 4285,10077 4515,9768 125,-188 234,-343 291,-531 9,-11 22,-43 27,-35 35,69 45,-61 51,-68 533,-725 1137,-1659 1959,-2205 415,-275 561,-295 1090,-492 142,20 53,47 -113,-408l-1354 -3678c-186,-225 -1195,-3204 -1375,-3739 -426,-1269 -847,-2549 -1235,-3868 -453,-2067 -1668,-4030 -4112,-4142l-154 281z"/>
   <path class="fil5" d="M157892 109236l-51 52c-1574,1141 -2360,1770 -3793,3031 -255,225 -435,461 -688,687 -285,255 -1142,1211 -1261,1504l23084 -2540 877 -2887c-1523,0 -3045,0 -4568,0 -4116,0 -8305,107 -12480,102 -450,-1 -705,51 -1120,51z"/>
   <path class="fil5" d="M147318 107810c-337,773 -624,4796 -523,5696 49,439 83,956 142,1385 205,1481 500,2320 1124,3621 199,127 1108,137 1448,166 154,-530 2321,-2460 2626,-2690 21,-179 379,-641 577,-676 119,-293 1118,-1532 1403,-1787 253,-226 527,-321 782,-546 1433,-1260 1748,-1796 3321,-2936l-326 -807c0,0 105,-250 -466,-960 -481,-597 -679,-869 -1028,-1569l-312 -146c-1560,85 -3061,245 -4581,468 -607,89 -3901,605 -4187,781z"/>
   <path class="fil6" d="M182079 127873c59,97 228,775 274,956 85,332 174,645 265,1009l3066 12364c225,892 158,824 -183,2050l86 -35c114,931 251,1829 456,2722 444,1930 865,2552 2788,3624 358,200 2119,935 2503,427l-1333 -2360c-108,-226 -229,-378 -339,-577l-1003 -1773c-129,-122 -720,-1202 -904,-1515 -69,-117 -280,-374 -210,-491 -23,-182 -94,-207 -184,-419 -93,-219 -55,-248 -128,-502l-196 161c-367,-675 -547,-803 -623,-1380 -73,-557 -188,-1196 -243,-1743l-373 -3650c-128,-1191 -237,-2470 -298,-3725 -10,-223 -40,-185 -50,-408l-204 -3361c7,-841 -206,-2927 -206,-3817 1,-383 -47,-599 -51,-916l-260 -8804c-64,-573 -43,-1300 -43,-1953 -195,390 -2628,13426 -2607,14116z"/>
   <path class="fil5" d="M241075 109349c270,150 1000,1113 1249,1489 342,517 664,1118 908,1793 682,1887 262,4518 399,5030 1230,72 2523,88 3760,80 1263,-7 2418,-109 3655,-166 -1,-660 -1138,-2493 -1449,-2907 -891,-1187 -2210,-2261 -3350,-3220 -795,-669 -2852,-2234 -3695,-2806 -210,-142 -560,-17 -937,64 -246,53 -781,144 -948,224 136,203 259,165 408,419z"/>
   <path class="fil1" d="M176637 74795l642 -84 -132 0c0,-546 -54,-1279 976,-976 279,82 468,179 736,283 331,130 246,124 386,683l805 3371c-339,-28 -691,-227 -953,-371 -333,-183 -506,-314 -787,-537 -382,-305 -914,-1126 -1011,-1672l-641 136 183 0c18,223 131,467 220,646l322 576c53,44 97,81 189,136 58,35 149,75 192,112 158,135 85,213 198,393 292,275 643,476 976,674 1375,819 1034,-181 1401,1198 57,216 165,575 170,797 475,0 950,0 1426,0 528,0 854,-51 1375,-51l1528 -8045 -6214 0c56,239 101,457 163,702 52,206 142,460 142,723 -350,-81 -1081,-484 -1696,-219 -535,232 -596,770 -596,1525z"/>
   <ellipse class="fil3" cx="202059" cy="105638" rx="38911" ry="12403"/>
   <path class="fil1" d="M206997 85473c1797,-308 3392,-580 4813,-822 1401,-239 2645,-455 3754,-643 914,-156 1752,-299 2523,-430 764,-129 1465,-254 2109,-366 388,-68 710,542 724,1341 27,1549 57,3091 85,4621 28,1525 55,3045 83,4553 14,776 -270,1703 -647,2078 -619,617 -1293,1290 -2025,2021 -740,737 -1544,1542 -2419,2413 -1052,1047 -2224,2223 -3546,3538 -1343,1337 -2843,2831 -4532,4506 -1333,1322 -2578,1224 -2649,-350 -69,-1538 -142,-3087 -209,-4643 -68,-1549 -137,-3109 -207,-4676 -71,-1589 -144,-3186 -216,-4791 -71,-1600 -142,-3203 -214,-4821 -74,-1681 1142,-3284 2573,-3529z"/>
   <g id="_562387472">
    <path class="fil0" d="M207184 86885c1753,-392 3314,-743 4707,-1053 1375,-306 2595,-585 3686,-831 903,-204 1734,-391 2498,-562 755,-169 1453,-325 2091,-472 48,-11 89,64 91,170 32,1692 66,3385 98,5060 33,1669 66,3327 98,4979 1,101 -36,221 -83,264 -619,564 -1289,1177 -2020,1841 -738,671 -1539,1397 -2412,2190 -1046,951 -2215,2008 -3524,3194 -1332,1207 -2818,2546 -4483,4051 -160,144 -300,109 -308,-72 -61,-1491 -119,-2994 -179,-4500 -60,-1502 -119,-3015 -181,-4528 -62,-1538 -125,-3084 -185,-4642 -60,-1549 -123,-3103 -187,-4666 -8,-197 124,-385 293,-423z"/>
    <path class="fil0" d="M207168 86889c1756,-393 3316,-744 4713,-1054 1378,-306 2600,-584 3693,-832 905,-205 1734,-391 2499,-564 757,-171 1453,-325 2093,-472 48,-11 89,64 91,170 13,575 22,1150 33,1724 2,104 -34,206 -83,224 -635,231 -1326,485 -2078,759 -758,276 -1584,574 -2482,900 -1083,394 -2294,834 -3657,1322 -1383,496 -2932,1051 -4668,1675 -169,61 -315,-49 -322,-241 -41,-1059 -83,-2124 -127,-3189 -8,-195 124,-384 295,-422z"/>
    <path class="fil0" d="M208474 87750c221,-59 410,108 418,374 9,264 -158,536 -380,602 -218,67 -412,-104 -422,-373 -12,-276 164,-544 384,-603z"/>
    <path class="fil0" d="M209858 87384c201,-51 364,111 373,360 9,252 -142,505 -340,565 -203,63 -376,-99 -385,-357 -9,-260 151,-517 352,-568z"/>
    <path class="fil0" d="M211125 87048c182,-46 331,109 339,346 7,243 -128,478 -309,535 -185,54 -340,-100 -348,-346 -10,-246 135,-489 318,-535z"/>
   </g>
   <g id="_562386992">
    <path class="fil1" d="M210336 88971c419,-149 826,-296 1223,-438 407,-146 805,-288 1188,-425 390,-138 766,-273 1130,-404 372,-133 734,-264 1082,-390 592,-213 1157,-414 1695,-606 548,-195 1072,-381 1564,-561 39,-15 73,40 77,122 70,1318 145,2653 217,3993 73,1350 146,2710 221,4080 4,84 -23,182 -61,214 -493,408 -1012,838 -1563,1292 -540,444 -1107,916 -1706,1411 -350,289 -713,589 -1088,899 -367,302 -748,614 -1140,939 -390,323 -792,655 -1207,996 -405,332 -822,676 -1251,1027 -79,65 -151,14 -154,-109 -32,-1013 -63,-2024 -94,-3026 -30,-988 -61,-1976 -91,-2954 -31,-981 -61,-1959 -90,-2935 -29,-958 -60,-1913 -90,-2861 -3,-120 59,-236 138,-264z"/>
    <path class="fil1" d="M210332 88975c418,-149 827,-295 1224,-436 408,-146 805,-289 1190,-426 389,-138 765,-275 1130,-405 373,-134 735,-263 1083,-389 594,-214 1157,-417 1695,-611 550,-198 1072,-379 1566,-562 39,-14 71,40 76,122 25,447 50,897 74,1346 4,83 -22,166 -62,184 -493,221 -1014,460 -1564,707 -538,242 -1103,497 -1698,763 -349,156 -710,322 -1084,489 -364,163 -742,333 -1131,506 -386,171 -784,351 -1194,533 -400,178 -809,361 -1231,551 -80,36 -148,-35 -152,-154 -20,-652 -41,-1305 -61,-1951 -3,-117 58,-238 139,-267z"/>
    <path class="fil1" d="M210959 89466c109,-42 205,58 210,224 5,168 -78,343 -189,388 -108,43 -203,-59 -209,-228 -6,-171 80,-342 188,-384z"/>
    <path class="fil1" d="M211660 89196c104,-39 191,60 196,222 6,163 -71,330 -176,371 -104,46 -195,-55 -200,-220 -6,-166 76,-334 180,-373z"/>
    <path class="fil1" d="M212333 88938c99,-38 182,61 188,216 6,159 -67,319 -167,360 -100,40 -184,-56 -190,-217 -8,-160 70,-322 169,-359z"/>
   </g>
   <path class="fil12" d="M215949 99021c152,-141 274,-55 280,190 7,239 -108,555 -255,696 -156,155 -287,72 -293,-173 -6,-247 116,-572 268,-713z"/>
   <path class="fil7" d="M242552 108642c843,572 2900,2137 3695,2806 1140,959 2459,2033 3350,3220 311,414 1448,2247 1449,2907l1439 -203 51 -40c137,-588 1026,-1951 1265,-4336 43,-422 59,-883 103,-1273 71,-635 -137,-2566 -261,-3288l-139 -539c-5,-8 -13,-25 -22,-35 144,1317 341,2980 285,4300 -1782,-267 -6546,-2249 -8289,-3152l-2427 -1348 131 -258c-250,134 -568,730 -885,814 54,103 45,91 118,186 114,148 88,27 137,239z"/>
   <path class="fil5" d="M183149 153333c-425,208 -1329,-213 -1650,-379 -389,-201 -848,-531 -1144,-852l-53 -63c-142,-24 -29,43 -183,-98 -40,-37 -64,-75 -120,-134 -1463,-1550 -1534,-2212 -1449,-4688l74 -2055 -1070 1241c-948,1239 -1738,2557 -2285,4031 -58,158 -94,313 -160,451 105,55 121,71 255,102 -4,185 -292,1240 -357,1375 248,131 1826,903 1987,916 108,-404 1169,-1397 1742,-978l334 277c617,571 1124,1244 1543,1971 210,366 669,1234 762,1633 209,0 262,40 458,51 180,9 380,-5 562,-2 263,3 281,40 508,53 181,9 379,-8 562,-2 251,7 254,46 506,54 184,5 379,-9 563,-3 252,7 255,46 507,54 180,5 381,-14 559,1l4281 201c-68,-255 -512,-398 -744,-479 -841,-291 -2211,-475 -3090,-627 -374,-65 -682,-115 -1050,-173 -480,-76 -350,-61 -758,-465 -199,-197 -376,-439 -542,-680 -100,-145 -157,-214 -255,-356 -102,-148 -155,-286 -293,-377z"/>
   <path class="fil5" d="M185501 144252l-680 1273c-594,1187 -1307,3171 -1307,4549 200,4 119,-14 255,51l-51 1273c146,70 1745,505 1935,509 201,-379 444,-1042 1043,-1203 326,-88 602,148 808,270 234,139 448,305 652,468 428,342 767,698 1153,1088 178,180 340,409 500,621 183,244 318,449 480,691l1264 -162c391,-48 835,-144 1270,-144 303,-180 2128,-320 2641,-387l2612 -376c-505,-413 -1875,-343 -2591,-336 -476,5 -951,8 -1427,12 -465,4 -1027,114 -1267,-185 -310,-193 -499,-404 -770,-611 -253,-194 -464,-439 -687,-663 -384,508 -2145,-227 -2503,-427 -1923,-1072 -2344,-1694 -2788,-3624 -205,-893 -342,-1791 -456,-2722l-86 35z"/>
   <path class="fil13" d="M180694 99804c-995,56 -2102,240 -2973,586 -456,180 -858,409 -1092,686 -349,412 -229,883 115,1171 1697,1422 6400,1482 8795,553 3187,-1236 221,-3283 -4845,-2996z"/>
   <path class="fil6" d="M236927 72828c79,302 160,249 375,356 230,-52 820,-34 1355,-179 950,-144 1527,-304 2142,-585 757,-280 674,-407 674,-407 38,-69 -1317,-2090 -1371,-2252 -251,-860 -390,-1642 -473,-2137 -13,-171 11,-591 -123,-653 54,-201 64,78 29,-461 31,-843 -4,-1636 64,-2492 63,-802 193,-1534 280,-2316 -715,280 -1982,1908 -2206,2888 -252,1108 -109,1078 -779,1715 -367,350 -988,729 -1617,924 -1,923 973,795 710,1886 -69,287 -248,461 -265,657 159,287 576,326 811,611 -84,199 -405,317 -258,620 86,177 424,215 642,324l10 1501z"/>
   <path class="fil6" d="M158809 69059c-178,-923 869,-1141 1732,-868 605,192 1353,751 1471,1337 329,1630 -2922,999 -3203,-469zm-11 738c726,226 1234,738 1548,1292 388,683 412,1493 180,2299 716,294 1519,328 2227,437 959,148 742,-531 742,-1863 270,-23 486,-137 662,-255 0,-725 -219,-283 -254,-713 150,-40 664,-387 815,-560 -113,-422 -794,-946 166,-1870 225,-217 241,-260 241,-676 -142,-68 -281,-94 -442,-169 -146,-68 -264,-127 -403,-208 -447,-264 -1146,-720 -1302,-1244 -92,-308 -157,-687 -247,-1010 -364,135 -1037,552 -1360,762 -828,537 -1806,1218 -2460,1920 -282,301 -205,328 -177,856 17,319 29,708 64,1002z"/>
   <path class="fil7" d="M243182 107403l-272 851 2087 933c1743,903 6969,3988 8751,4255 164,-2376 -122,-4264 -267,-5581 31,-180 -115,-926 -169,-1051 -371,87 -632,389 -1031,496 -2176,581 -3898,914 -5973,66 -379,-155 -693,-422 -1039,-602 -306,-158 -948,-995 -1114,-1022 -95,152 -598,1065 -706,1228 -107,159 -218,267 -267,427z"/>
   <path class="fil5" d="M237302 73184c521,434 1285,1178 1692,1673 1267,1543 756,3516 -894,4519 -595,361 -1313,533 -1985,192 -288,-146 -276,-232 -491,-376 162,608 1354,1291 1987,1578 634,288 2186,650 3005,256 218,-184 679,-1642 814,-2037 121,-355 241,-710 358,-1069 94,-287 238,-865 358,-1098 152,-748 94,-1518 68,-2286 -587,-80 -1083,-300 -1444,-590 -170,-137 -400,-379 -520,-548 -161,-225 -223,-423 -356,-632 -289,34 -914,183 -1237,239 -358,62 -1023,142 -1355,179z"/>
   <path class="fil10" d="M147175 107810c286,-176 3580,-692 4187,-781 1521,-223 3022,-383 4582,-468l-109 -737c-45,-275 -86,-439 -137,-700 -32,-166 -70,-598 -139,-777 -234,5 -762,69 -987,95l-3037 7c-728,0 -1298,-53 -1987,-50 -480,1 -1473,-179 -1724,-84l-110 11 -505 3217c8,317 -129,178 -34,267z"/>
   <path class="fil7" d="M242146 76822c-120,233 -264,811 -358,1098 -117,359 -237,714 -358,1069 -135,395 -596,1853 -814,2037 -48,583 -1549,3376 -2124,4139l-548 675c-184,221 -243,302 -486,430 234,1004 1007,2180 1834,2736 138,-193 1837,-5763 2058,-6484 305,-996 711,-2252 1195,-3082 396,-679 1388,-1768 2315,-1996l-127 -1295 -2785 1587 198 -914z"/>
   <path class="fil10" d="M161525 89721c425,-538 270,-509 750,-1309 105,-176 531,-814 456,-1072l-397 -520c-133,-201 -247,-342 -378,-539 -135,-202 -241,-336 -376,-540 -132,-198 -234,-365 -369,-548 -226,-303 -1205,-2099 -1231,-2538 -366,-73 -798,-413 -1134,-541 350,1319 919,2599 1304,3868 162,535 1207,3514 1375,3739z"/>
   <path class="fil5" d="M218670 122249c-82,182 -560,153 -743,156l538 1636c1952,162 3742,-856 5052,-2109 51,-50 77,-74 127,-126l143 -157c-121,-124 -133,-434 -182,-702 -40,-212 -55,-507 -159,-658 -492,601 -1121,1003 -2084,1373 -413,158 -865,291 -1325,403l-1066 223c-231,36 -162,53 -301,-39z"/>
   <path class="fil7" d="M242214 74536c26,768 84,1538 -68,2286l-198 914 2785 -1587c-39,-346 -175,-785 -286,-1090 -112,-307 -256,-739 -473,-911 -257,97 -435,229 -760,314 -338,89 -633,94 -1000,74z"/>
   <path class="fil5" d="M214688 121258c0,247 15,504 -16,747l20 5407c28,141 -4,75 66,155l-41 -5264c1501,363 2517,396 3923,-125 -55,-235 -345,-1150 -450,-1290 -557,354 -2739,34 -3450,0l-52 370z"/>
   <path class="fil6" d="M158313 70153c408,3574 5120,5111 4643,1142 -171,-1428 -1256,-2789 -2132,-3255 -1252,-664 -2768,-135 -2511,2113z"/>
   <path class="fil14" d="M194749 103352c-12,12 -28,14 -34,40 -6,25 -53,66 -61,79 -145,239 -211,721 -211,1001 519,-211 2006,-1107 2341,-201 365,987 -488,2562 -475,2747 -470,870 -1227,1439 -2107,1850 -795,370 -807,138 -845,501l-30 -161c-88,77 -169,-141 -74,192l32 78c97,216 -30,63 88,174 1053,-237 2196,-917 2856,-1715l659 -927c8,-8 20,-34 23,-26 47,122 389,-951 457,-1319 188,-1012 185,-2363 -1140,-2367 -377,-1 -537,22 -818,104 -233,67 -487,203 -712,255 72,-150 47,-83 51,-305z"/>
   <path class="fil5" d="M214688 121258l52 -370c711,34 2893,354 3450,0l-385 -1314c-397,-37 -986,39 -1436,24 -410,-14 -937,-39 -1324,-132 -127,-24 -183,-46 -357,-46l0 1838z"/>
   <path class="fil15" d="M180302 152039l53 63c296,321 755,651 1144,852 321,166 1225,587 1650,379 -33,-217 -139,-518 -215,-744 -86,-256 -156,-510 -229,-739 -166,-519 -307,-1006 -465,-1521 -459,187 -959,1332 -1938,1710z"/>
   <path class="fil13" d="M189252 105332l74 171c1,2 34,162 36,171l490 2603c199,1046 382,2022 572,2992l3210 73c56,-533 485,-1740 438,-2119 -95,-334 -14,-115 75,-193 241,-617 376,-2173 657,-2620 91,-104 347,-1359 397,-1567 53,-219 138,-344 62,-549 0,-280 65,-762 210,-1000 9,-14 55,-54 61,-79 6,-26 22,-28 34,-41 90,-80 349,-1338 357,-1426l-7386 0c2,87 638,3512 713,3584z"/>
   <path class="fil13" d="M194038 109745l-386 1625 -3269 -60c-23,-189 -244,-1474 -367,-1658 -799,93 -1722,308 -2382,615 -585,272 -1580,911 -827,1664 942,940 3036,1237 4685,1262 1594,25 3818,-222 4945,-1006l370 -338c938,-1189 -1827,-2022 -2769,-2104z"/>
   <path class="fil6" d="M159636 72826c171,68 316,147 523,229 207,82 370,142 568,218 165,-687 156,-1284 -157,-1904 -215,-426 -706,-947 -1227,-1105 45,440 73,868 115,1312 34,361 11,980 178,1250z"/>
   <g id="_563832400">
    <path class="fil1" d="M226338 110893c336,-514 665,-1026 987,-1523 335,-517 660,-1027 979,-1526 661,-1032 1291,-2020 1886,-2959 519,-818 1022,-1610 1507,-2376 500,-789 985,-1554 1454,-2284 293,-455 -86,-1025 -836,-1267 -1507,-487 -3067,-996 -4688,-1522 -1684,-545 -3447,-1112 -5268,-1699 -968,-312 -2193,-197 -2717,278 -834,756 -1717,1550 -2641,2382 -898,810 -1849,1649 -2843,2529 -1140,1009 -2361,2075 -3657,3202 -1249,1086 -2571,2212 -3955,3406 -1029,888 -537,1846 1075,2091 1525,232 3012,459 4449,677 1384,210 2734,414 4048,613 1289,196 2544,388 3767,574 1183,179 2335,355 3461,526 1137,172 2484,-343 2992,-1122z"/>
    <g>
     <path class="fil1" d="M225371 110776c353,-517 701,-1025 1038,-1523 352,-522 697,-1033 1031,-1530 696,-1041 1360,-2029 1991,-2974 551,-823 1086,-1626 1600,-2401 530,-799 1045,-1576 1539,-2316 39,-59 -7,-130 -105,-160 -1630,-511 -3337,-1045 -5109,-1599 -1850,-579 -3782,-1186 -5802,-1815 -126,-40 -287,-24 -348,34 -803,767 -1641,1569 -2520,2408 -854,814 -1743,1664 -2678,2548 -1070,1009 -2207,2077 -3415,3197 -1160,1076 -2381,2196 -3658,3370 -116,107 -49,225 143,257 1551,260 3057,507 4520,750 1403,232 2776,459 4100,678 1303,216 2572,427 3809,632 1195,197 2358,390 3490,579 143,24 308,-38 374,-135z"/>
     <path class="fil1" d="M225364 110786c354,-516 701,-1026 1039,-1525 352,-519 695,-1031 1031,-1532 697,-1042 1363,-2033 1994,-2978 551,-826 1086,-1626 1603,-2400 534,-801 1045,-1579 1539,-2319 39,-59 -7,-129 -105,-160 -544,-171 -1098,-342 -1662,-520 -105,-33 -223,-15 -268,46 -546,747 -1118,1525 -1709,2336 -569,780 -1159,1596 -1774,2435 -700,956 -1442,1961 -2219,3019 -373,509 -760,1029 -1155,1559 -380,510 -768,1030 -1164,1560 -75,100 -17,202 131,226 796,132 1580,259 2347,388 139,23 305,-37 372,-135z"/>
     <path class="fil1" d="M225034 109885c96,-137 13,-280 -189,-316 -202,-35 -449,46 -548,184 -98,136 -9,280 195,316 205,35 445,-47 542,-184z"/>
     <path class="fil1" d="M225650 109000c91,-133 8,-269 -183,-306 -197,-38 -435,38 -532,172 -95,133 -9,272 189,309 200,37 435,-43 526,-175z"/>
     <path class="fil1" d="M226254 108135c87,-129 6,-263 -181,-301 -195,-39 -423,30 -516,160 -92,133 -9,266 186,303 191,41 424,-33 511,-162z"/>
    </g>
    <path class="fil1" d="M215352 101293c161,-151 53,-331 -245,-406 -295,-73 -675,-12 -834,137 -176,158 -64,339 234,412 300,69 684,9 845,-143z"/>
   </g>
   <path class="fil7" d="M235483 96357c-78,178 -515,426 -645,550 -1191,1139 -1857,1761 -3321,2204 -1323,420 -1760,304 -2753,622 -596,190 -1571,206 -2197,234 -601,27 -1353,-89 -1963,-189 -160,-27 -300,-101 -401,-37 14,161 -16,368 -29,536 -7,83 -20,193 -24,284 -10,234 -29,138 40,230l876 241c2552,555 4102,758 6733,601 258,-15 510,-70 784,-94l1541 -356c254,-88 482,-168 732,-269 123,-49 236,-100 359,-159l1389 -878c142,-111 188,-217 348,-279 49,-120 11,-72 88,-104l40 -30 49 -75 39 -29 40 -29c49,-119 11,-71 89,-104 73,-168 319,-423 426,-581l396 -685c108,-221 177,-375 229,-509 -85,-49 -2400,-1583 -2865,-1095z"/>
   <path class="fil9" d="M237196 94779c-32,218 -1708,3097 -1833,3294 -1154,1805 -1805,2801 -3626,4107 -1636,1197 -2284,1349 -3512,2251 -736,541 -2066,1143 -2912,1547 -813,388 -1891,729 -2770,1000 -230,71 -452,84 -565,207 88,145 133,360 185,530 26,83 54,196 87,285 85,231 19,150 152,196l1301 -296c3731,-1005 5940,-1744 9481,-3478 347,-169 669,-374 1034,-561l1963 -1268c311,-237 590,-451 890,-698 147,-121 281,-238 425,-369l1535 -1675c148,-193 167,-321 359,-477 18,-144 -14,-75 78,-153l41 -51 37 -102 41 -51 42 -52c17,-144 -15,-75 78,-153 30,-205 260,-596 340,-812l254 -894c57,-277 86,-465 102,-625 -138,4 -2774,-2448 -3207,-1702z"/>
   <path class="fil6" d="M222336 108431c-42,-144 -73,-43 78,-237 111,-1647 -1239,-2154 -2476,-2175 -933,-15 -1305,-42 -2195,-183 -400,-63 -668,-112 -1057,-232 -612,-189 -1519,-518 -2031,-1222 -215,265 -134,807 222,1125 829,739 2677,697 3203,1421 -288,249 -106,187 -789,376 -587,162 -1906,508 -2521,495 -1188,-26 -2186,-590 -3318,233 171,139 1169,123 1400,135 248,12 443,18 688,32 1546,89 1492,22 2885,-30 251,-9 522,-78 730,-1 -946,687 -2637,521 -3733,546l-1211 50c-203,10 -1595,120 -1650,466 -18,115 -132,57 325,67l3239 39c184,-5 216,18 399,14 796,-18 2290,-308 2525,-287 -662,459 -2665,451 -3492,406 -444,-24 -892,-109 -1399,90 -440,172 -382,241 -696,480l60 82c249,-105 455,-81 708,-101 679,-54 1500,-29 2191,-19l2158 -43c217,-12 550,-74 732,-15 -737,535 -2041,255 -3023,670 -325,137 -819,506 -820,800 511,-354 1968,-575 2704,-724l559 -76c178,-22 331,-51 523,-84 1233,-210 302,67 1647,-495 372,-155 808,-360 1139,-518 371,-178 2020,-885 2296,-1085z"/>
   <path class="fil6" d="M217002 101885l287 -581c241,-517 497,-1131 780,-1710 443,-909 118,-770 1412,-555 607,101 1225,178 1832,300 1665,334 3546,485 5213,492l0 806 -4 0c-546,1250 -3102,1486 -4331,1474 -839,-8 -709,-102 -965,160l-1346 1426c-268,-92 -264,-150 -469,-268 -133,-164 -231,-121 -308,-314 -21,-53 -29,-151 -43,-218 -23,-105 -43,-158 -68,-222 12,-211 -345,-1784 -329,-2031 -179,56 -35,-83 -309,433 -95,180 -205,330 -284,516l-336 563c-273,465 -463,916 -909,1035 -338,-124 -345,-231 -167,-578 88,-170 271,-516 344,-728z"/>
   <g id="_309068736">
    <rect class="fil5" transform="matrix(0.0700186 -0.0700186 0.0516917 0.0516917 152894 14373.4)" width="11534" height="61514" rx="54491" ry="54491"/>
    <rect class="fil5" x="152952" y="9760" width="1142" height="4982" rx="5396" ry="4414"/>
   </g>
   <g id="_642942376">
    <rect class="fil5" transform="matrix(-0.0700186 -0.0700186 -0.0516917 0.0516917 172148 14373.4)" width="11534" height="61514" rx="54491" ry="54491"/>
    <rect class="fil5" x="170948" y="9760" width="1142" height="4982" rx="5396" ry="4414"/>
   </g>
   <g id="_642940120">
    <circle class="fil1" cx="157721" cy="17402" r="392"/>
    <circle class="fil1" cx="158952" cy="17402" r="392"/>
    <circle class="fil1" cx="160210" cy="17402" r="392"/>
   </g>
   <g id="_642936304">
    <path class="fil16" d="M154109 7102c-997,38 -1897,459 -2557,1119 -693,693 -1122,1651 -1122,2708 0,130 6,258 19,384l917 0c-17,-125 -25,-254 -25,-384 0,-806 327,-1536 855,-2064 495,-495 1167,-813 1913,-851l0 -912z"/>
    <path class="fil16" d="M154109 4945c-1593,39 -3031,701 -4082,1751 -1083,1084 -1753,2580 -1753,4233 0,129 4,257 12,384l913 0c-9,-126 -14,-254 -14,-384 0,-1401 568,-2670 1487,-3588 885,-886 2096,-1445 3437,-1485l0 -911z"/>
    <path class="fil16" d="M154109 2932c-2149,39 -4091,926 -5505,2341 -1448,1448 -2343,3447 -2343,5656 0,129 3,257 9,384l912 0c-6,-127 -10,-255 -10,-384 0,-1957 794,-3729 2076,-5012 1250,-1249 2964,-2035 4861,-2074l0 -911z"/>
   </g>
   <g id="_324486888">
    <path class="fil16" d="M170815 7102c997,38 1897,459 2557,1119 693,693 1122,1651 1122,2708 0,130 -6,258 -19,384l-917 0c16,-125 25,-254 25,-384 0,-806 -327,-1536 -855,-2064 -495,-495 -1167,-813 -1913,-851l0 -912z"/>
    <path class="fil16" d="M170815 4945c1593,39 3031,701 4082,1751 1083,1084 1753,2580 1753,4233 0,129 -4,257 -12,384l-914 0c10,-126 15,-254 15,-384 0,-1401 -568,-2670 -1487,-3588 -885,-886 -2096,-1445 -3437,-1485l0 -911z"/>
    <path class="fil16" d="M170815 2932c2149,39 4090,926 5505,2341 1448,1448 2343,3447 2343,5656 0,129 -3,257 -9,384l-913 0c7,-127 11,-255 11,-384 0,-1957 -794,-3729 -2076,-5012 -1250,-1249 -2964,-2035 -4861,-2074l0 -911z"/>
   </g>
   <rect class="fil8" x="245409" y="121513" width="2443" height="30588"/>
   <ellipse class="fil8" cx="155802" cy="153052" rx="10474" ry="2992"/>
   <ellipse class="fil8" cx="246630" cy="153052" rx="10474" ry="2992"/>
   <g id="_324475416">
    <path class="fil1" d="M297430 74222l3613 -42 0 -1646 -526 -55c-920,0 -1840,3 -2759,-1 -196,0 -461,-18 -644,-10 -584,26 -386,247 -386,1754l702 0z"/>
    <g>
     <polygon class="fil1" points="301045,78069 301080,74144 297466,74186 298732,78069 "/>
     <path class="fil1" d="M300972 78069l2296 0 1281 -3883c-551,-192 -2746,-31 -3542,-42l-35 3925z"/>
     <path class="fil1" d="M301043 72534l0 1646c796,11 2991,-150 3542,42l701 0c0,-429 28,-942 10,-1357 -22,-499 -74,-390 -1040,-387 -920,4 -1840,1 -2759,1l-454 55z"/>
     <path class="fil17" d="M300964 71553l482 -33c669,-29 1361,-664 1652,-1113 439,-679 329,-1386 329,-2445 -394,264 -833,993 -1268,1109l-1194 -1109 -1 3591z"/>
     <path class="fil17" d="M300531 71517l469 36 1 -3591c-379,266 -837,996 -1262,1109l-1152 -1109 -19 0c-19,1067 -126,1770 311,2445 287,443 989,1093 1652,1110z"/>
     <path class="fil8" d="M300517 72479l526 55 454 -55c98,-263 108,-689 -15,-959l-482 33 -469 -36c-121,272 -114,696 -14,962z"/>
    </g>
   </g>
   <path class="fil4" d="M197555 74210l3614 -43 0 -1645 -527 -56c-919,0 -1839,3 -2759,0 -195,0 -460,-18 -644,-10 -584,26 -386,247 -386,1754l702 0z"/>
   <polygon class="fil4" points="201170,78056 201205,74131 197592,74174 198857,78056 "/>
   <path class="fil4" d="M201098 78056l2296 0 1281 -3882c-552,-192 -2746,-32 -3542,-43l-35 3925z"/>
   <path class="fil4" d="M201169 72522l0 1645c796,12 2991,-149 3542,43l700 0c0,-429 28,-942 10,-1357 -21,-499 -73,-390 -1040,-387 -919,3 -1839,0 -2759,0l-453 56z"/>
   <path class="fil17" d="M201089 71541l482 -33c670,-29 1362,-664 1653,-1113 439,-679 328,-1386 328,-2445 -394,263 -833,993 -1267,1109l-1195 -1109 -1 3591z"/>
   <path class="fil17" d="M200657 71505l468 36 2 -3591c-380,266 -838,996 -1263,1109l-1152 -1109 -19 0c-19,1066 -125,1770 311,2445 287,443 990,1093 1653,1110z"/>
   <path class="fil8" d="M200642 72466l527 56 453 -56c98,-262 108,-689 -14,-958l-483 33 -468 -36c-122,272 -115,696 -15,961z"/>
   <path class="fil8" d="M131913 35150c-501,947 -423,826 -423,2219l2536 0 0 1056 -2536 0 0 529 2536 0 0 3064 -2536 0 0 1057 -422 0 -5 -6556c-5,-771 167,-1312 850,-1369zm0 -4544l1178 0c588,48 516,318 513,1585 -2,669 0,1339 0,2008 817,433 1585,743 1585,2219 0,1468 141,6545 -106,7608 -199,46 -544,81 -966,105l-3140 0c-422,-24 -768,-59 -966,-105 -247,-1063 -106,-6140 -106,-7608 0,-601 166,-1106 449,-1453 377,-461 632,-499 1136,-766 0,-669 2,-1339 0,-2008 -1,-585 -142,-1585 423,-1585zm0 4544l0 0z"/>
   <path class="fil1" d="M126165 37994c-349,660 -294,576 -294,1547l1767 0 0 736 -1767 0 0 368 1767 0 0 2136 -1767 0 0 736 -295 0 -3 -4569c-4,-537 117,-914 592,-954zm0 -3166l821 0c410,33 360,221 357,1105 -1,466 0,932 0,1399 570,301 1105,518 1105,1546 0,1023 99,4561 -74,5302 -138,32 -379,56 -673,73l-2188 0c-294,-17 -535,-41 -673,-73 -173,-741 -74,-4279 -74,-5302 0,-419 115,-771 313,-1013 263,-321 440,-348 792,-533 0,-467 1,-933 0,-1399 -1,-408 -100,-1105 294,-1105zm0 3166l0 0z"/>
   <path class="fil3" d="M116725 35699c-501,948 -423,827 -423,2219l2536 0 0 1057 -2536 0 0 528 2536 0 0 3065 -2536 0 0 1056 -423 0 -4 -6555c-5,-771 167,-1313 850,-1370zm0 -4543l1178 0c588,47 516,317 512,1585 -1,669 0,1338 0,2007 818,433 1585,744 1585,2219 0,1469 142,6546 -105,7608 -199,46 -544,82 -966,106l-3140 0c-422,-24 -768,-60 -966,-106 -247,-1062 -106,-6139 -106,-7608 0,-600 165,-1106 449,-1453 377,-460 632,-499 1136,-766 0,-669 2,-1338 0,-2007 -1,-585 -142,-1585 423,-1585zm0 4543l0 0z"/>
   <path class="fil8" d="M139451 36153c-439,830 -370,724 -370,1943l2220 0 0 925 -2220 0 0 463 2220 0 0 2682 -2220 0 0 925 -370 0 -4 -5739c-4,-675 147,-1149 744,-1199zm0 -3977l1032 0c514,42 451,278 448,1387 -1,586 0,1172 0,1758 716,379 1388,651 1388,1943 0,1285 124,5730 -93,6660 -174,40 -476,71 -845,92l-2749 0c-369,-21 -672,-52 -846,-92 -216,-930 -92,-5375 -92,-6660 0,-526 144,-969 393,-1273 330,-403 553,-436 994,-670 0,-586 2,-1172 0,-1758 -1,-512 -125,-1387 370,-1387zm0 3977l0 0z"/>
   <g id="_324472488">
    <path class="fil3" d="M112550 37011l0 0c1116,0 2030,914 2030,2031l0 5130c0,184 -25,364 -72,534l-3917 0c-47,-170 -72,-350 -72,-534l0 -5130c0,-1117 914,-2031 2031,-2031z"/>
    <rect class="fil3" x="111882" y="35418" width="1336" height="3260" rx="1414" ry="1414"/>
    <rect class="fil3" x="111508" y="34927" width="2084" height="855" rx="2828" ry="2828"/>
   </g>
   <g id="_324487440">
    <path class="fil3" d="M145574 36144l0 0c1117,0 2031,914 2031,2031l0 5130c0,185 -25,364 -72,534l-3917 0c-47,-170 -72,-349 -72,-534l0 -5130c0,-1117 913,-2031 2030,-2031z"/>
    <rect class="fil3" x="144906" y="34551" width="1336" height="3260" rx="1414" ry="1414"/>
    <rect class="fil3" x="144532" y="34060" width="2084" height="855" rx="2828" ry="2828"/>
   </g>
   <g id="_657841888">
    <path class="fil3" d="M150086 37251l0 0c1117,0 2031,913 2031,2030l0 5130c0,185 -25,364 -72,535l-3917 0c-47,-171 -72,-350 -72,-535l0 -5130c0,-1117 914,-2030 2030,-2030z"/>
    <rect class="fil3" x="149418" y="35658" width="1336" height="3260" rx="1414" ry="1414"/>
    <rect class="fil3" x="149044" y="35167" width="2084" height="855" rx="2828" ry="2828"/>
   </g>
   <g id="_657838864">
    <path class="fil1" d="M93362 36044l0 0c1325,0 2408,1084 2408,2408l0 6084c0,219 -29,431 -85,633l-4645 0c-56,-202 -86,-414 -86,-633l0 -6084c0,-1324 1084,-2408 2408,-2408z"/>
    <rect class="fil1" x="92570" y="34156" width="1584" height="3865" rx="1676" ry="1676"/>
    <rect class="fil1" x="92127" y="33573" width="2471" height="1014" rx="3353" ry="3353"/>
   </g>
   <path class="fil8" d="M97518 36189c-501,947 -423,826 -423,2219l2536 0 0 1057 -2536 0 0 528 2536 0 0 3064 -2536 0 0 1057 -423 0 -4 -6556c-5,-771 167,-1312 850,-1369zm0 -4543l1178 0c587,47 516,317 512,1584 -1,669 0,1339 0,2008 818,433 1585,744 1585,2219 0,1469 142,6546 -105,7608 -199,46 -544,81 -966,106l-3140 0c-422,-25 -768,-60 -966,-106 -248,-1062 -106,-6139 -106,-7608 0,-600 165,-1106 449,-1453 377,-461 632,-499 1136,-766 0,-669 2,-1339 0,-2008 -2,-585 -143,-1584 423,-1584zm0 4543l0 0z"/>
   <g id="_657862384">
    <path class="fil3" d="M108328 37010l0 0c1117,0 2031,913 2031,2030l0 5130c0,185 -25,364 -72,535l-3918 0c-46,-171 -72,-350 -72,-535l0 -5130c0,-1117 914,-2030 2031,-2030z"/>
    <rect class="fil3" x="107660" y="35417" width="1336" height="3260" rx="1414" ry="1414"/>
    <rect class="fil3" x="107286" y="34926" width="2084" height="855" rx="2828" ry="2828"/>
   </g>
   <g id="_657860584">
    <path class="fil3" d="M103679 37170l0 0c1117,0 2031,914 2031,2031l0 5130c0,184 -26,363 -72,534l-3918 0c-46,-171 -72,-350 -72,-534l0 -5130c0,-1117 914,-2031 2031,-2031z"/>
    <rect class="fil3" x="103011" y="35577" width="1336" height="3260" rx="1414" ry="1414"/>
    <rect class="fil3" x="102637" y="35086" width="2084" height="855" rx="2828" ry="2828"/>
   </g>
   <g id="_657859696">
    <path class="fil1" d="M122863 39260l0 0c735,0 1336,601 1336,1336l0 3375c0,122 -16,240 -47,352l-2577 0c-31,-112 -48,-230 -48,-352l0 -3375c0,-735 602,-1336 1336,-1336z"/>
    <rect class="fil1" x="122424" y="38212" width="879" height="2145" rx="930" ry="930"/>
    <rect class="fil1" x="122178" y="37889" width="1371" height="563" rx="1860" ry="1860"/>
   </g>
   <path class="fil1" d="M109116 53969c-342,668 -288,582 -292,1546 286,-14 573,-28 859,-42 284,-14 569,-28 854,-42 -1,243 -1,486 -2,729 -284,15 -569,30 -854,45 -286,15 -573,30 -860,44 -1,123 -1,244 -2,367 287,-15 574,-31 861,-46 285,-15 570,-30 855,-45 -1,707 -2,1415 -3,2124 -286,17 -572,35 -858,52 -288,18 -575,36 -863,53 -2,247 -3,493 -4,740 -96,6 -192,12 -289,18 3,-765 6,-1531 9,-2293 3,-760 6,-1520 9,-2278 -1,-534 118,-914 580,-972zm12 -3121c264,-8 527,-16 791,-25 393,21 344,207 341,1070 -2,457 -2,915 -3,1374 273,137 538,254 734,461 196,207 324,507 324,1013 -1,503 23,1629 25,2722 3,1096 -15,2163 -99,2537 -133,42 -366,81 -650,116 -355,24 -709,47 -1065,71 -357,24 -715,47 -1073,71 -290,3 -528,-5 -664,-29 -83,-368 -95,-1447 -86,-2560 9,-1109 40,-2251 43,-2762 2,-418 117,-772 312,-1021 259,-330 432,-363 775,-561 2,-461 5,-921 5,-1381 1,-400 -92,-1083 290,-1096zm-12 3121c0,0 0,0 0,0z"/>
   <g id="_657857656">
    <path class="fil3" d="M93592 54659l0 0c1117,0 2030,914 2030,2031l0 5130c0,185 -25,364 -72,534l-3917 0c-47,-170 -72,-349 -72,-534l0 -5130c0,-1117 914,-2031 2031,-2031z"/>
    <rect class="fil3" x="92924" y="53067" width="1336" height="3260" rx="1414" ry="1414"/>
    <rect class="fil3" x="92550" y="52575" width="2084" height="855" rx="2828" ry="2828"/>
   </g>
   <g id="_657855328">
    <path class="fil3" d="M132285 51800l0 0c1117,0 2031,913 2031,2030l0 5130c0,185 -26,364 -72,534l-3918 0c-47,-170 -72,-349 -72,-534l0 -5130c0,-1117 914,-2030 2031,-2030z"/>
    <rect class="fil3" x="131617" y="50207" width="1336" height="3260" rx="1414" ry="1414"/>
    <rect class="fil3" x="131243" y="49715" width="2084" height="855" rx="2828" ry="2828"/>
   </g>
   <g id="_657854008">
    <path class="fil3" d="M89370 54658l0 0c1117,0 2031,914 2031,2030l0 5131c0,184 -25,363 -72,534l-3918 0c-46,-171 -71,-350 -71,-534l0 -5131c0,-1116 913,-2030 2030,-2030z"/>
    <rect class="fil3" x="88702" y="53065" width="1336" height="3260" rx="1414" ry="1414"/>
    <rect class="fil3" x="88328" y="52574" width="2084" height="855" rx="2828" ry="2828"/>
   </g>
   <g id="_657853384">
    <path class="fil3" d="M82984 37792l0 0c1118,0 2031,914 2031,2030l0 5131c0,184 -25,363 -72,534l-3917 0c-47,-171 -72,-350 -72,-534l0 -5131c0,-1116 914,-2030 2030,-2030z"/>
    <rect class="fil3" x="82317" y="36199" width="1336" height="3260" rx="1414" ry="1414"/>
    <rect class="fil3" x="81943" y="35708" width="2084" height="855" rx="2828" ry="2828"/>
   </g>
   <g id="_657852088">
    <path class="fil1" d="M105063 55418c0,0 0,0 0,0 367,-19 701,115 943,345 241,229 392,556 392,924 0,563 0,1126 0,1688 0,561 0,1122 0,1682 0,121 -17,239 -48,352 -427,27 -855,54 -1283,80 -429,27 -860,54 -1290,80 -32,-110 -48,-226 -48,-348 -1,-564 -2,-1128 -3,-1692 -1,-565 -2,-1131 -3,-1698 -1,-370 150,-714 393,-970 243,-256 579,-425 947,-443z"/>
    <path class="fil1" d="M105062 54363c0,0 0,0 0,0 242,-11 440,177 440,420 0,424 1,848 1,1272 0,242 -198,451 -439,464 0,0 0,0 0,0 -243,13 -441,-175 -441,-418 -1,-424 -1,-849 -2,-1274 0,-243 198,-452 441,-464z"/>
    <path class="fil1" d="M104655 54056c136,-6 271,-13 406,-19 135,-7 271,-13 406,-20 154,-7 281,114 281,271 0,0 0,0 0,0 0,155 -126,288 -281,296 -135,7 -270,13 -405,20 -135,7 -271,13 -406,20 -155,7 -283,-113 -283,-269 0,0 0,0 0,0 0,-157 127,-291 282,-299z"/>
   </g>
   <path class="fil8" d="M111453 24166c-337,637 -285,556 -285,1493l1707 0 0 711 -1707 0 0 356 1707 0 0 2061 -1707 0 0 711 -284 0 -3 -4411c-4,-519 112,-883 572,-921zm0 -3058l793 0c395,33 347,214 344,1067 -1,450 0,901 0,1351 551,291 1067,500 1067,1493 0,988 95,4405 -71,5119 -134,32 -366,55 -650,71l-2113 0c-284,-16 -516,-39 -650,-71 -167,-714 -71,-4131 -71,-5119 0,-404 111,-744 302,-978 254,-310 425,-335 764,-515 0,-450 1,-901 0,-1351 -1,-394 -96,-1067 285,-1067zm0 3058l0 0z"/>
   <path class="fil1" d="M106375 23911c-349,660 -295,576 -295,1546l1768 0 0 737 -1768 0 0 368 1768 0 0 2135 -1768 0 0 737 -294 0 -3 -4569c-4,-537 116,-914 592,-954zm0 -3166l821 0c409,33 359,221 357,1104 -1,466 0,933 0,1399 570,302 1105,518 1105,1547 0,1023 98,4561 -74,5301 -139,33 -379,57 -673,74l-2188 0c-294,-17 -535,-41 -674,-74 -172,-740 -73,-4278 -73,-5301 0,-419 115,-771 313,-1013 262,-321 440,-348 791,-534 0,-466 1,-933 0,-1399 -1,-408 -99,-1104 295,-1104zm0 3166l0 0z"/>
   <path class="fil3" d="M96934 21535c-501,947 -422,827 -422,2219l2536 0 0 1057 -2536 0 0 528 2536 0 0 3064 -2536 0 0 1057 -423 0 -4 -6556c-5,-771 167,-1312 849,-1369zm0 -4543l1179 0c587,47 515,317 512,1584 -1,670 0,1339 0,2008 818,433 1585,744 1585,2219 0,1468 142,6546 -106,7608 -198,46 -544,81 -965,106l-3141 0c-421,-25 -767,-60 -965,-106 -248,-1062 -106,-6140 -106,-7608 0,-601 165,-1106 449,-1453 377,-461 632,-499 1136,-766 0,-669 1,-1338 0,-2008 -2,-585 -143,-1584 422,-1584zm0 4543l0 0z"/>
   <g id="_657851128">
    <path class="fil3" d="M92759 22604l0 0c1117,0 2031,914 2031,2031l0 5130c0,185 -25,364 -72,534l-3917 0c-47,-170 -72,-349 -72,-534l0 -5130c0,-1117 913,-2031 2030,-2031z"/>
    <rect class="fil3" x="92091" y="21012" width="1336" height="3260" rx="1414" ry="1414"/>
    <rect class="fil3" x="91717" y="20520" width="2084" height="855" rx="2828" ry="2828"/>
   </g>
   <g id="_657850504">
    <path class="fil3" d="M125784 22626l0 0c1117,0 2030,914 2030,2031l0 5130c0,185 -25,364 -71,534l-3918 0c-47,-170 -72,-349 -72,-534l0 -5130c0,-1117 914,-2031 2031,-2031z"/>
    <rect class="fil3" x="125116" y="21034" width="1336" height="3260" rx="1414" ry="1414"/>
    <rect class="fil3" x="124742" y="20542" width="2084" height="855" rx="2828" ry="2828"/>
   </g>
   <g id="_657849328">
    <path class="fil3" d="M130296 22844l0 0c1117,0 2031,914 2031,2031l0 5130c0,185 -25,364 -72,534l-3918 0c-46,-170 -72,-349 -72,-534l0 -5130c0,-1117 914,-2031 2031,-2031z"/>
    <rect class="fil3" x="129628" y="21251" width="1336" height="3260" rx="1414" ry="1414"/>
    <rect class="fil3" x="129254" y="20760" width="2084" height="855" rx="2828" ry="2828"/>
   </g>
   <g id="_657848584">
    <path class="fil1" d="M73572 21234l0 0c1324,0 2408,1083 2408,2408l0 6083c0,219 -30,432 -85,634l-4646 0c-55,-202 -85,-415 -85,-634l0 -6083c0,-1325 1084,-2408 2408,-2408z"/>
    <rect class="fil1" x="72780" y="19345" width="1584" height="3865" rx="1676" ry="1676"/>
    <rect class="fil1" x="72336" y="18763" width="2471" height="1014" rx="3353" ry="3353"/>
   </g>
   <path class="fil8" d="M77057 24478c-337,637 -284,556 -284,1493l1707 0 0 711 -1707 0 0 356 1707 0 0 2062 -1707 0 0 711 -284 0 -3 -4412c-4,-518 112,-883 571,-921zm0 -3057l793 0c396,32 347,213 345,1066 -1,450 0,901 0,1351 550,291 1066,500 1066,1493 0,988 96,4405 -71,5120 -133,31 -366,54 -649,71l-2113 0c-284,-17 -517,-40 -650,-71 -167,-715 -72,-4132 -72,-5120 0,-404 112,-744 303,-977 253,-310 425,-336 764,-516 0,-450 1,-901 0,-1351 -1,-394 -96,-1066 284,-1066zm0 3057l0 0z"/>
   <g id="_657847720">
    <path class="fil1" d="M103073 25177l0 0c735,0 1336,601 1336,1336l0 3375c0,121 -17,239 -47,351l-2578 0c-31,-112 -47,-230 -47,-351l0 -3375c0,-735 601,-1336 1336,-1336z"/>
    <rect class="fil1" x="102633" y="24129" width="879" height="2145" rx="930" ry="930"/>
    <rect class="fil1" x="102387" y="23805" width="1371" height="563" rx="1860" ry="1860"/>
   </g>
   <g id="_657846232">
    <path class="fil3" d="M63194 23385l0 0c1117,0 2031,914 2031,2031l0 5130c0,185 -25,364 -72,534l-3917 0c-47,-170 -72,-349 -72,-534l0 -5130c0,-1117 913,-2031 2030,-2031z"/>
    <rect class="fil3" x="62526" y="21793" width="1336" height="3260" rx="1414" ry="1414"/>
    <rect class="fil3" x="62152" y="21301" width="2084" height="855" rx="2828" ry="2828"/>
   </g>
   <g id="_657844456">
    <path class="fil1" d="M134579 21500l0 0c1324,0 2408,1084 2408,2408l0 6083c0,219 -30,432 -86,634l-4645 0c-56,-202 -85,-415 -85,-634l0 -6083c0,-1324 1083,-2408 2408,-2408z"/>
    <rect class="fil1" x="133786" y="19612" width="1584" height="3865" rx="1676" ry="1676"/>
    <rect class="fil1" x="133343" y="19029" width="2471" height="1014" rx="3353" ry="3353"/>
   </g>
   <path class="fil8" d="M138734 21645c-501,947 -423,826 -423,2219l2536 0 0 1057 -2536 0 0 528 2536 0 0 3064 -2536 0 0 1057 -422 0 -5 -6556c-5,-771 167,-1312 850,-1369zm0 -4543l1178 0c588,47 516,317 513,1584 -2,669 0,1339 0,2008 817,433 1584,744 1584,2219 0,1468 142,6546 -105,7608 -199,46 -544,81 -966,105l-3140 0c-422,-24 -768,-59 -966,-105 -247,-1062 -106,-6140 -106,-7608 0,-601 165,-1106 449,-1453 377,-461 632,-499 1136,-766 0,-669 2,-1339 0,-2008 -1,-585 -142,-1584 423,-1584zm0 4543l0 0z"/>
   <g id="_657844312">
    <path class="fil3" d="M144895 22626l0 0c1117,0 2031,914 2031,2031l0 5130c0,184 -25,364 -72,534l-3917 0c-47,-170 -73,-350 -73,-534l0 -5130c0,-1117 914,-2031 2031,-2031z"/>
    <rect class="fil3" x="144227" y="21033" width="1336" height="3260" rx="1414" ry="1414"/>
    <rect class="fil3" x="143853" y="20542" width="2084" height="855" rx="2828" ry="2828"/>
   </g>
   <g id="_657843904">
    <path class="fil3" d="M148388 25057l0 0c855,0 1554,699 1554,1553l0 3924c0,142 -20,279 -55,409l-2997 0c-36,-130 -55,-267 -55,-409l0 -3924c0,-854 699,-1553 1553,-1553z"/>
    <rect class="fil3" x="147877" y="23839" width="1022" height="2493" rx="1081" ry="1081"/>
    <rect class="fil3" x="147591" y="23463" width="1594" height="654" rx="2163" ry="2163"/>
   </g>
   <rect class="fil8" x="146624" y="19889" width="26492" height="2137" rx="5940" ry="5655"/>
   <g id="_657843160">
    <path class="fil8" d="M153724 24541l0 0c855,0 1553,699 1553,1553l0 3924c0,141 -19,278 -54,409l-2997 0c-36,-131 -55,-268 -55,-409l0 -3924c0,-854 699,-1553 1553,-1553z"/>
    <rect class="fil8" x="153213" y="23322" width="1022" height="2493" rx="1081" ry="1081"/>
    <rect class="fil8" x="152927" y="22947" width="1594" height="654" rx="2163" ry="2163"/>
   </g>
   <g id="_657842536">
    <path class="fil3" d="M157030 24650l0 0c855,0 1554,699 1554,1553l0 3924c0,142 -20,279 -55,409l-2997 0c-36,-130 -55,-267 -55,-409l0 -3924c0,-854 699,-1553 1553,-1553z"/>
    <rect class="fil3" x="156519" y="23432" width="1022" height="2493" rx="1081" ry="1081"/>
    <rect class="fil3" x="156233" y="23056" width="1594" height="654" rx="2163" ry="2163"/>
   </g>
   <path class="fil9" d="M216649 91268c-65,34 -131,70 -198,106 -242,131 -495,268 -761,411 -280,152 -575,311 -885,479 -1,-43 -1,-65 -1,-108 -2,-501 -5,-1003 -7,-1503 -3,-537 348,-1079 761,-1211 384,-123 674,160 677,631 1,63 1,125 2,188 1,163 2,327 3,489 1,189 100,310 209,255 106,-54 197,-245 195,-444 -1,-156 -2,-313 -3,-470 0,-61 -1,-121 -1,-181 -3,-370 -117,-673 -302,-865 -192,-199 -467,-288 -783,-204 -337,90 -663,357 -910,722 -258,381 -424,859 -422,1320 3,563 5,1127 8,1691 -351,189 -631,651 -630,1055 2,397 3,795 5,1192 2,397 3,794 4,1193 2,406 285,480 637,186 483,-403 930,-777 1344,-1123 384,-321 743,-621 1079,-902 215,-180 373,-540 371,-838 -3,-291 -5,-583 -7,-874 -2,-291 -4,-583 -6,-874 -2,-279 -163,-438 -379,-321zm-989 2119c1,173 2,347 3,521 1,60 -31,124 -78,159 -48,36 -81,19 -81,-43 -1,-176 -2,-352 -3,-527 -98,25 -166,-53 -166,-177 -1,-165 114,-383 243,-464 125,-80 234,-10 235,148 1,138 -60,279 -153,383z"/>
   <circle class="fil7" cx="155481" cy="17402" r="997"/>
  </g>
 </g>
</svg>
