<?xml version="1.0" encoding="UTF-8" standalone="no"?>
<!-- Created with Inkscape (http://www.inkscape.org/) -->

<svg
   xmlns:dc="http://purl.org/dc/elements/1.1/"
   xmlns:cc="http://creativecommons.org/ns#"
   xmlns:rdf="http://www.w3.org/1999/02/22-rdf-syntax-ns#"
   xmlns:svg="http://www.w3.org/2000/svg"
   xmlns="http://www.w3.org/2000/svg"
   xmlns:sodipodi="http://sodipodi.sourceforge.net/DTD/sodipodi-0.dtd"
   xmlns:inkscape="http://www.inkscape.org/namespaces/inkscape"
   width="57.016705mm"
   height="29.324186mm"
   viewBox="0 0 202.02769 103.9046"
   id="svg25164"
   version="1.1"
   inkscape:version="0.91 r"
   sodipodi:docname="cableConnect.svg">
  <defs
     id="defs25166" />
  <sodipodi:namedview
     id="base"
     pagecolor="#ffffff"
     bordercolor="#666666"
     borderopacity="1.0"
     inkscape:pageopacity="0.0"
     inkscape:pageshadow="2"
     inkscape:zoom="1.979899"
     inkscape:cx="151.02108"
     inkscape:cy="88.36732"
     inkscape:document-units="px"
     inkscape:current-layer="layer1"
     showgrid="false"
     fit-margin-top="0"
     fit-margin-left="0"
     fit-margin-right="0"
     fit-margin-bottom="0"
     inkscape:window-width="1920"
     inkscape:window-height="1028"
     inkscape:window-x="0"
     inkscape:window-y="0"
     inkscape:window-maximized="1" />
  <metadata
     id="metadata25169">
    <rdf:RDF>
      <cc:Work
         rdf:about="">
        <dc:format>image/svg+xml</dc:format>
        <dc:type
           rdf:resource="http://purl.org/dc/dcmitype/StillImage" />
        <dc:title></dc:title>
      </cc:Work>
    </rdf:RDF>
  </metadata>
  <g
     inkscape:label="Layer 1"
     inkscape:groupmode="layer"
     id="layer1"
     transform="translate(0,-948.4576)">
    <g
       transform="translate(1917.8212,456.8754)"
       id="g25117">
      <g
         id="g12260">
        <path
           inkscape:connector-curvature="0"
           id="path12262"
           style="fill:#eaf1fc;fill-rule:evenodd"
           d="m -1885.7319,556.1951 140.776,0 c -3.4191,0 -6.2165,3.0732 -6.2165,6.8293 l 0,0 c 0,3.7561 2.7974,6.8293 6.2165,6.8293 l -140.776,0 c 3.4191,0 6.2165,-3.0732 6.2165,-6.8293 l 0,0 c 0,-3.7561 -2.7974,-6.8293 -6.2165,-6.8293 z" />
        <path
           inkscape:connector-curvature="0"
           id="path12264"
           style="fill:#eaf1fc;fill-rule:evenodd"
           d="m -1900.9875,590.7501 0,-16.5074 q 0,21.2441 21.2441,21.2441 l 142.7058,0 q 21.2441,0 21.2441,-21.2441 l 0,16.5074 q 0,-21.2441 -21.2441,-21.2441 l -142.7058,0 q -21.2441,0 -21.2441,21.2441 z" />
        <path
           inkscape:connector-curvature="0"
           id="path12266"
           style="fill:#eaf1fc;fill-rule:evenodd"
           d="m -1917.8212,551.9477 0,-16.5075 q 0,21.2442 21.2441,21.2442 l 144.3891,0 q 21.2441,0 21.2441,-21.2442 l 0,16.5075 q 0,-21.2441 -21.2441,-21.2441 l -144.3891,0 q -21.2441,0 -21.2441,21.2441 z" />
        <path
           inkscape:connector-curvature="0"
           id="path12268"
           style="fill:#eaf1fc;fill-rule:evenodd"
           d="m -1905.4974,512.8264 0,-16.5075 q 0,21.2441 21.2442,21.2441 l 142.7058,0 q 21.2441,0 21.2441,-21.2441 l 0,16.5075 q 0,-21.2442 -21.2441,-21.2442 l -142.7058,0 q -21.2442,0 -21.2442,21.2442 z" />
        <path
           inkscape:connector-curvature="0"
           id="path12270"
           style="fill:#eaf1fc;fill-rule:evenodd"
           d="m -1887.6401,517.3637 140.776,0 c -3.4191,0 -6.2165,3.0732 -6.2165,6.8293 l 0,0 c 0,3.7561 2.7974,6.8293 6.2165,6.8293 l -140.776,0 c 3.4191,0 6.2165,-3.0732 6.2165,-6.8293 l 0,0 c 0,-3.7561 -2.7974,-6.8293 -6.2165,-6.8293 z" />
      </g>
      <path
         inkscape:connector-curvature="0"
         id="path12272"
         style="fill:#c1d4fb;fill-rule:evenodd"
         d="m -1835.9378,513.6441 0,50.3465 q 0,5.0477 5.0476,5.0477 l 50.3465,0 q 5.0477,0 5.0477,-5.0477 l 0,-50.3465 q 0,-5.0476 -5.0477,-5.0476 l -50.3465,0 q -5.0476,0 -5.0476,5.0476 z" />
      <path
         inkscape:connector-curvature="0"
         id="path12274"
         style="fill:#2a4586;fill-rule:evenodd"
         d="m -1816.401,529.9178 0,17.7992 q 0,1.7845 1.7845,1.7845 l 17.7992,0 q 1.7845,0 1.7845,-1.7845 l 0,-17.7992 q 0,-1.7845 -1.7845,-1.7845 l -17.7992,0 q -1.7845,0 -1.7845,1.7845 z" />
      <path
         inkscape:connector-curvature="0"
         id="path12276"
         style="fill:#2a4586;fill-rule:evenodd"
         d="m -1810.0531,523.9515 0,3.9456 q 0,0.3955 0.3956,0.3955 l 7.8811,0 q 0.3956,0 0.3956,-0.3955 l 0,-3.9456 q 0,-0.3955 -0.3956,-0.3955 l -7.8811,0 q -0.3956,0 -0.3956,0.3955 z" />
      <path
         inkscape:connector-curvature="0"
         id="path12292"
         style="fill:#49f4c3;fill-rule:evenodd"
         d="m -1854.3817,534.3124 14.6402,-2.3873 0.1272,-0.0195 0.1307,-0.007 16.9941,0 0.1307,0.007 0.1271,0.0195 0.1228,0.0318 0.1178,0.0433 0.1121,0.0543 0.1059,0.0644 0.099,0.0741 0.091,0.083 0.083,0.0913 0.074,0.0988 0.064,0.1059 0.054,0.1121 0.043,0.1179 0.032,0.1226 0.02,0.1271 0.01,0.1308 0,16.994 -0.01,0.1308 -0.02,0.1271 -0.032,0.1227 -0.043,0.1179 -0.054,0.1121 -0.064,0.1058 -0.074,0.0989 -0.083,0.0913 -0.091,0.0829 -0.099,0.0741 -0.1059,0.0645 -0.1121,0.0542 -12.4465,4.7892 0.126,-0.0609 0.1189,-0.0725 0.1111,-0.0832 0.1026,-0.0932 0.093,-0.1026 0.083,-0.1111 0.072,-0.1189 0.061,-0.126 0.049,-0.1324 0.036,-0.1378 0.022,-0.1429 0.01,-0.1469 0,-19.0944 -0.01,-0.1469 -0.022,-0.1429 -0.036,-0.1378 -0.049,-0.1324 -0.061,-0.126 -0.072,-0.1189 -0.083,-0.1111 -0.093,-0.1026 -0.1026,-0.0932 -0.1111,-0.0832 -0.1189,-0.0725 -0.126,-0.0609 -0.1323,-0.0487 -0.1379,-0.0357 -0.1429,-0.0219 -0.1469,-0.007 -19.0944,0 -0.1469,0.007 -0.1428,0.0219 z" />
      <path
         inkscape:connector-curvature="0"
         id="path12294"
         style="fill:#36d9ab;fill-rule:evenodd"
         d="m -1855.5342,535.7252 0,19.0944 q 0,1.4422 1.4422,1.4422 l 19.0944,0 q 1.4422,0 1.4422,-1.4422 l 0,-19.0944 q 0,-1.4422 -1.4422,-1.4422 l -19.0944,0 q -1.4422,0 -1.4422,1.4422 z" />
      <g
         id="g12296">
        <path
           inkscape:connector-curvature="0"
           id="path12298"
           style="fill:#2a4586;fill-rule:evenodd"
           d="m -1873.1474,556.1951 8.4382,0 c -0.3729,0.3661 -0.7068,0.7693 -0.9965,1.2024 -1.0726,1.6035 -1.5358,3.621 -1.1304,5.6653 l 0,0.009 c 0.4044,2.0266 1.6013,3.7053 3.2046,4.778 2.8091,1.8793 14.3101,1.2425 18.5977,1.095 4.5214,-0.1962 11.8324,-0.4836 17.0162,0.9091 l -43.6223,0 c -1.0836,-1.588 -1.8717,-3.4129 -2.2679,-5.4104 l -0.07,-0.3551 0,-0.0268 c -0.4673,-2.7314 -0.1354,-5.4364 0.8291,-7.8662 z" />
        <path
           inkscape:connector-curvature="0"
           id="path12300"
           style="fill:#2a4586;fill-rule:evenodd"
           d="m -1871.8682,569.506 42.3483,0 c 2.0311,0.4013 3.8383,1.006 5.1781,1.9022 3.1419,2.102 5.4868,5.3971 6.2764,9.3778 l 0.07,0.3551 0,0.0268 c 0.6564,3.8364 -0.2635,7.6204 -2.2991,10.6635 -0.9359,1.3989 -2.1085,2.6394 -3.4723,3.6554 l -28.6318,0 0,-0.2814 c 0.3265,-0.0213 0.6553,-0.0638 0.9849,-0.1291 l 20.3657,-4.0394 c 2.0283,-0.4035 3.7086,-1.6009 4.782,-3.2053 1.0724,-1.6033 1.5355,-3.6209 1.1302,-5.6653 l 0,-0.009 c -0.4043,-2.0266 -1.6011,-3.7054 -3.2045,-4.7781 -2.0169,-1.3494 -8.66,-1.4205 -14.7443,-1.2392 -6.749,0.2518 -19.2317,1.2343 -24.5436,-2.3195 -1.6791,-1.1233 -3.1305,-2.5876 -4.2386,-4.315 z" />
        <path
           inkscape:connector-curvature="0"
           id="path12302"
           style="fill:#2a4586;fill-rule:evenodd"
           d="m -1865.1656,556.6844 -8.1661,0 c 0.4145,-1.1617 0.9715,-2.2659 1.6544,-3.2866 2.102,-3.1418 5.3971,-5.4869 9.3776,-6.2763 l 0.3551,-0.0705 20.0062,-3.9679 c 0.7917,-0.1569 1.5821,-0.2461 2.3652,-0.2718 l 0,7.2125 c -0.3265,0.0212 -0.6553,0.0639 -0.9849,0.1292 l -20.3657,4.0393 c -1.7148,0.3411 -3.1809,1.2497 -4.2418,2.4921 z" />
      </g>
      <path
         inkscape:connector-curvature="0"
         id="path12304"
         style="fill:#2a4586;fill-rule:evenodd"
         d="m -1849.415,541.0413 0,8.4622 q 0,0.6391 0.6391,0.6391 l 8.4622,0 q 0.6392,0 0.6392,-0.6391 l 0,-8.4622 q 0,-0.6391 -0.6392,-0.6391 l -8.4622,0 q -0.6391,0 -0.6391,0.6391 z" />
      <path
         inkscape:connector-curvature="0"
         id="path12306"
         style="fill:#49f4c3;fill-rule:evenodd"
         d="m -1848.5649,529.6986 14.0005,-1.8797 0.071,-0.007 7.0144,0 0.071,0.007 0.066,0.0205 0.06,0.0326 0.052,0.0431 0.043,0.0521 0.033,0.0598 0.021,0.0659 0.01,0.0708 0,3.5116 -0.01,0.0707 -0.021,0.066 -0.033,0.0597 -0.043,0.0523 -0.052,0.043 -0.06,0.0325 -0.066,0.0206 -13.116,2.399 0.074,-0.0231 0.067,-0.0366 0.059,-0.0483 0.048,-0.0587 0.036,-0.0671 0.023,-0.0741 0.01,-0.0795 0,-3.9457 -0.01,-0.0794 -0.023,-0.0742 -0.036,-0.0671 -0.048,-0.0586 -0.059,-0.0484 -0.067,-0.0366 -0.074,-0.0231 -0.08,-0.008 -7.8813,0 -0.08,0.008 z" />
      <path
         inkscape:connector-curvature="0"
         id="path12308"
         style="fill:#36d9ab;fill-rule:evenodd"
         d="m -1848.8809,530.0861 0,3.9455 q 0,0.3956 0.3955,0.3956 l 7.8812,0 q 0.3955,0 0.3955,-0.3956 l 0,-3.9455 q 0,-0.3956 -0.3955,-0.3956 l -7.8812,0 q -0.3955,0 -0.3955,0.3956 z" />
    </g>
  </g>
</svg>
