<?xml version="1.0" encoding="UTF-8" standalone="no"?>
<!-- Created with Inkscape (http://www.inkscape.org/) -->

<svg
   xmlns:dc="http://purl.org/dc/elements/1.1/"
   xmlns:cc="http://creativecommons.org/ns#"
   xmlns:rdf="http://www.w3.org/1999/02/22-rdf-syntax-ns#"
   xmlns:svg="http://www.w3.org/2000/svg"
   xmlns="http://www.w3.org/2000/svg"
   xmlns:sodipodi="http://sodipodi.sourceforge.net/DTD/sodipodi-0.dtd"
   xmlns:inkscape="http://www.inkscape.org/namespaces/inkscape"
   width="151.58395mm"
   height="80.520851mm"
   viewBox="0 0 537.1085 285.3101"
   id="svg17116"
   version="1.1"
   inkscape:version="0.91 r"
   sodipodi:docname="usersManagment.svg">
  <defs
     id="defs17118" />
  <sodipodi:namedview
     id="base"
     pagecolor="#ffffff"
     bordercolor="#666666"
     borderopacity="1.0"
     inkscape:pageopacity="0.0"
     inkscape:pageshadow="2"
     inkscape:zoom="0.35"
     inkscape:cx="-145"
     inkscape:cy="520"
     inkscape:document-units="px"
     inkscape:current-layer="layer1"
     showgrid="false"
     fit-margin-top="0"
     fit-margin-left="0"
     fit-margin-right="0"
     fit-margin-bottom="0"
     inkscape:window-width="1920"
     inkscape:window-height="1028"
     inkscape:window-x="0"
     inkscape:window-y="0"
     inkscape:window-maximized="1" />
  <metadata
     id="metadata17121">
    <rdf:RDF>
      <cc:Work
         rdf:about="">
        <dc:format>image/svg+xml</dc:format>
        <dc:type
           rdf:resource="http://purl.org/dc/dcmitype/StillImage" />
        <dc:title></dc:title>
      </cc:Work>
    </rdf:RDF>
  </metadata>
  <g
     inkscape:label="Layer 1"
     inkscape:groupmode="layer"
     id="layer1"
     transform="translate(0,-767.0521)">
    <g
       transform="translate(-17.4984,282.1674)"
       id="g17031">
      <path
         inkscape:connector-curvature="0"
         id="path16827"
         style="fill:#eaf1fc;fill-rule:evenodd"
         d="m 470.9526,667.7882 c -6.0817,2.6866 -10.4037,9.2431 -10.4037,16.8561 l 0,0 c 0,7.2777 3.9497,13.5892 9.6109,16.4786 l 49.9112,0 c 18.9949,0 34.5359,15.541 34.5359,34.5359 l 0,0 c 0,18.9949 -15.541,34.5359 -34.5359,34.5359 l -423.2824,0 c -18.9949,0 -34.536,-15.541 -34.536,-34.5359 l 0,0 c 0,-18.9949 15.5411,-34.5359 34.536,-34.5359 l 12.938,0 c 5.6612,-2.8894 9.6109,-9.2009 9.6109,-16.4786 l 0,0 c 0,-7.613 -4.322,-14.1695 -10.4037,-16.8561 l -56.8995,0 c -18.9948,0 -34.5359,-15.5411 -34.5359,-34.5359 l 0,0 c 0,-18.9949 15.5411,-34.536 34.5359,-34.536 l 52.4698,0 c 5.741,-2.8539 9.7608,-9.2137 9.7608,-16.5554 l 0,0 c 0,-7.6273 -4.3408,-14.1958 -10.4413,-16.8727 l -19.0251,0 c -18.9948,0 -34.5359,-15.541 -34.5359,-34.5359 l 0,0 c 0,-18.9949 15.5411,-34.536 34.5359,-34.536 l 423.2825,0 c 18.9948,0 34.5359,15.5411 34.5359,34.536 l 0,0 c 0,18.9949 -15.5411,34.5359 -34.5359,34.5359 l -42.1641,0 c -6.1005,2.6769 -10.4413,9.2454 -10.4413,16.8727 l 0,0 c 0,7.3417 4.0198,13.7015 9.7608,16.5554 l 14.5561,0 c 18.9949,0 34.5359,15.5411 34.5359,34.536 l 0,0 c 0,18.9948 -15.541,34.5359 -34.5359,34.5359 l -8.8399,0 z" />
      <g
         id="g16829">
        <path
           inkscape:connector-curvature="0"
           id="path16831"
           style="fill:#f7b7a3;fill-rule:evenodd"
           d="m 353.3587,747.7605 c 0.877,5.5134 2.1158,13.3444 2.1158,15.8638 0,2.0787 0.9368,4.3765 1.5661,6.5705 l 15.5081,0 c 0.4246,-9.0111 0.8422,-18.2191 0.7211,-23.6038 -2.825,0.0833 -5.9879,0.1176 -9.5587,0.2089 -5.1463,0.1309 -8.3534,0.7262 -10.3524,0.9606 z" />
        <path
           inkscape:connector-curvature="0"
           id="path16833"
           style="fill:#f7b7a3;fill-rule:evenodd"
           d="m 385.3723,745.1532 c -0.5779,6.6949 -2.7334,19.9599 -2.0616,23.3008 0.1074,0.5341 0.199,1.1203 0.2804,1.7408 l -14.3635,0 c -0.6471,-5.5934 -1.4003,-13.4748 -1.4848,-23.4831 7.7125,-0.148 13.2965,-0.2123 17.6295,-1.5585 z" />
        <path
           inkscape:connector-curvature="0"
           id="path16835"
           style="fill:#2a4586;fill-rule:evenodd"
           d="m 389.8841,687.5434 c 0.8837,10.6064 0.5888,44.784 2.6514,49.2038 2.0623,4.4199 4.7147,5.0087 -1.4728,7.6601 -6.1873,2.6521 -14.7323,2.3575 -28.285,2.6521 -13.5534,0.2942 -15.616,2.9463 -15.9109,-1.4735 -0.2939,-4.4188 0.5898,-12.9636 0,-23.2761 -0.545,-9.5339 -0.837,-15.0392 -0.6457,-20.7054 0.5971,1.5963 2.0919,2.2492 5.4658,1.304 4.8467,-1.3562 11.2437,-0.1931 21.3246,-6.7844 10.0807,-6.5915 11.631,-3.4894 14.3458,-4.8466 0.7666,-0.3829 1.6257,-1.9105 2.4637,-3.9061 0.02,0.0584 0.0438,0.1127 0.0631,0.1721 z" />
        <path
           inkscape:connector-curvature="0"
           id="path16837"
           style="fill:#f7b7a3;fill-rule:evenodd"
           d="m 374.6523,557.2168 c 0.5572,6.538 21.5204,2.8843 7.6673,36.5533 -2.461,0 -0.1817,7.5913 -2.9496,5.7852 -2.7671,-1.8059 -2.1525,0 -1.5376,3.2513 0.6153,3.2503 5.2278,6.8625 10.7627,9.0303 5.5357,2.1669 8.6108,4.6955 11.6857,9.7527 3.0751,5.0575 4.9199,6.1408 4.9199,6.1408 l 6.4579,-1.8061 -1.5375,14.0867 c 0,0 8.9179,10.4755 10.1481,16.9779 1.2297,6.5017 1.2297,8.6684 -3.3828,11.9197 -4.6125,3.2514 -9.225,4.3355 -15.068,5.4191 -5.8429,1.0834 -11.0706,1.8051 -9.8403,6.1408 0.557,1.9624 1.2403,5.5549 1.7922,9.7372 l -46.7138,0 c 1.4521,-5.9881 2.7927,-10.9573 2.7927,-16.6007 0,-10.1144 -0.3072,-19.5055 -1.2294,-24.2021 -0.9234,-4.6956 -1.2313,-5.4181 -3.6909,-2.8895 -2.4601,2.5286 -5.2278,7.5861 -9.2252,5.78 -3.9974,-1.8069 -7.3804,-9.3919 -4.3055,-17.6997 3.0751,-8.3085 10.4556,-22.396 10.763,-27.814 0.3076,-5.4183 0.3076,-13.7258 2.1524,-16.2544 1.8454,-2.5289 1.2436,-3.9235 3.0532,-3.5691 1.872,0.278 0.9515,-5.5806 3.2347,-11.8107 2.8612,-7.806 6.1943,-17.1384 24.0508,-17.9287 z" />
        <path
           inkscape:connector-curvature="0"
           id="path16839"
           style="fill:#db9a86;fill-rule:evenodd"
           d="m 379.7688,598.852 c -1.0968,-0.1703 -0.6014,1.4699 -0.1054,3.9546 0.3645,1.8243 2.0576,3.7623 4.5061,5.4959 -0.1991,-0.0475 -0.4032,-0.0996 -0.6128,-0.1573 -5.2004,-1.4242 -5.5197,1.5138 -7.8397,2.9388 -2.3193,1.425 0.9601,-5.877 0.9601,-8.815 0,-2.9388 0.0798,-6.5895 -1.5196,-5.2543 -1.6003,1.3355 -6.7997,6.5897 -8.5595,7.6585 -1.7598,1.0678 -4.6393,4.5406 -4.6393,4.5406 0,0 -0.08,-1.87 -0.6402,-4.1844 -0.5594,-2.3152 -4.9905,5.5206 -6.0313,3.3832 -1.0401,-2.1376 -4.8837,0.5595 -4.8837,0.5595 l -4.7626,-10.177 1.0399,-10.24 4.0791,-0.0888 c 0,0 1.8403,-0.6228 2.8801,2.1376 1.0392,2.7605 1.1997,4.8083 2.2396,7.0336 1.0399,2.2264 -0.986,1.654 0.5338,3.2576 1.5191,1.6021 4.286,0.648 8.6053,-2.7568 2.2393,-1.8692 7.8986,-3.9725 9.4984,-5.0413 1.6006,-1.0689 0.7202,-2.9391 1.4401,-2.3155 0.6768,0.5862 1.2127,0.6999 2.3389,0.4149 -0.7213,0.9213 -0.2649,1.427 -0.3783,3.2009 -0.1259,1.9536 0.4392,3.4666 1.851,4.4547 z" />
        <path
           inkscape:connector-curvature="0"
           id="path16841"
           style="fill:#49f4c3;fill-rule:evenodd"
           d="m 382.4218,607.5881 c 1.7721,1.2749 3.9288,2.4289 6.247,3.3329 5.5622,2.1669 8.6521,4.6955 11.7418,9.7527 3.0898,5.0575 4.9435,6.1408 4.9435,6.1408 l 6.4889,-1.8061 -1.545,14.0867 c 0,0 8.9608,10.4755 10.197,16.9779 1.2354,6.5017 1.2354,8.6684 -3.3992,11.9197 -4.6346,3.2514 -9.2694,4.3355 -15.1403,5.4191 -5.8709,1.0834 -11.1237,1.8051 -9.8875,6.1408 1.2363,4.3337 3.0897,16.6153 2.7813,25.6463 -0.2907,8.4872 -2.4921,16.0182 -3.0124,24.6902 -4.59,-0.2736 -10.1373,-1.763 -19.3785,-1.9707 -11.13,-0.2502 -19.3299,-4.9035 -28.463,-8.0679 -0.441,-4.6698 -0.5532,-9.3096 -0.1293,-13.5682 1.545,-15.5327 5.8709,-23.4793 5.8709,-33.5932 0,-10.1144 -0.3087,-19.5055 -1.2354,-24.2021 -0.9276,-4.6956 -1.2371,-5.4181 -3.7088,-2.8895 -1.8918,1.9362 -3.9655,5.3542 -6.637,6.0391 1.3067,-6.463 2.2789,-10.6905 2.2789,-10.6905 l 7.0829,-34.1968 c 0,0 8.0574,-3.9188 12.255,-3.9188 0.6133,1.283 0.904,2.7153 1.1665,4.7083 0.2694,2.0506 3.9624,8.0785 4.3932,13.5929 9.6981,-5.4492 11.6645,2.3611 17.0895,-13.5436 z" />
        <path
           inkscape:connector-curvature="0"
           id="path16843"
           style="fill:#f7b7a3;fill-rule:evenodd"
           d="m 341.9866,649.4185 c -2.1952,2.1623 -4.7176,4.1013 -7.9064,2.8749 -4.6955,-1.8069 -6.294,-9.3919 -2.682,-17.6997 3.6122,-8.3085 9.9062,-22.396 10.267,-27.814 0.3617,-5.4183 0.3617,-13.7258 2.5286,-16.2544 2.1678,-2.5289 1.4608,-3.9235 3.5865,-3.5691 2.1265,0.3543 2.4809,-1.7721 3.8986,-0.8866 1.0789,0.675 1.6449,0.5275 1.6963,-0.2069 1.2445,3.9902 -0.088,1.8427 0.4294,3.3967 0.5322,1.5945 -0.7088,-0.7087 -2.3033,0.5312 -1.5945,1.2409 -1.2401,0.3546 -2.48,-0.5312 -1.241,-0.8866 -0.8858,-0.1768 -1.5946,2.3035 -0.709,2.4809 -0.1391,6.5894 2.7062,6.7927 2.8474,0.2033 2.3409,2.8246 4.7651,-0.007 2.4235,-2.8318 2.451,-0.23 2.9822,2.0735 0.5311,2.3033 -0.3544,3.0123 -2.6579,4.43 -2.3033,1.4177 -5.8646,0.5283 -8.5222,5.8438 -2.6579,5.3155 -1.2223,16.1264 -1.2223,23.9228 0,7.7958 -0.8865,11.5168 -3.3666,14.1747 l -0.1246,0.6254 z" />
        <path
           inkscape:connector-curvature="0"
           id="path16845"
           style="fill:#5f5b5d;fill-rule:evenodd"
           d="m 345.064,591.0198 -0.0249,1.0128 3.1891,4.6078 2.7383,-2.4648 c -0.4717,-1.1355 -0.8645,-2.1257 -0.9533,-2.6887 -0.1274,-0.8043 -0.339,-1.6652 -0.6165,-2.5453 l -0.1649,-0.006 c 0.0423,0.7583 -0.4725,0.0825 -0.1171,1.1495 0.5312,1.5935 -1.1724,-0.3499 -2.3043,0.5312 -1.1311,0.88 -1.5021,0.4761 -1.7464,0.4039 z" />
        <path
           inkscape:connector-curvature="0"
           id="path16847"
           style="fill:#ffffff;fill-rule:evenodd"
           d="m 344.7569,590.8737 -0.5322,0.8224 3.1898,4.6068 2.7376,-2.4637 c -0.4707,-1.1356 -0.8637,-2.1265 -0.9525,-2.6888 -0.1272,-0.805 -0.3388,-1.6659 -0.6173,-2.546 l -0.1649,-0.006 c 0.0431,0.7575 -0.4725,0.0826 -0.1171,1.1485 0.5312,1.5945 -0.7079,-0.7087 -2.3035,0.5312 -0.6685,0.5202 -0.9953,0.6669 -1.2399,0.5953 z" />
        <path
           inkscape:connector-curvature="0"
           id="path16849"
           style="fill:#db9a86;fill-rule:evenodd"
           d="m 346.5264,645.3055 c -0.4322,0.2308 -0.9561,0.6365 -1.6101,1.2079 -0.9268,0.8116 -1.892,1.883 -2.9297,2.9051 l 0.1246,-0.6254 c 2.4801,-2.6579 3.3666,-6.3789 3.3666,-14.1747 0,-6.7652 -0.7258,-18.7436 1.2223,-23.9228 0.1747,4.7706 3.5263,20.2485 3.5263,24.4212 0,4.3822 -2.1319,7.5814 -3.5536,9.9496 -0.0457,0.076 -0.0942,0.1557 -0.1464,0.2391 z" />
        <path
           inkscape:connector-curvature="0"
           id="path16851"
           style="fill:#36d9ab;fill-rule:evenodd"
           d="m 348.6202,638.1987 c 2.2272,6.681 18.0659,31.6752 30.4389,37.6145 12.373,5.9394 -6.1865,-5.9393 -12.1258,-13.1157 -5.9391,-7.1767 -22.2724,-32.1711 -18.3131,-24.4988 z" />
        <path
           inkscape:connector-curvature="0"
           id="path16853"
           style="fill:#36d9ab;fill-rule:evenodd"
           d="m 347.1355,655.0263 c 0.7427,4.702 6.9295,18.8077 19.7978,27.2216 12.8686,8.414 20.0442,11.6313 14.1059,6.4339 -2.4627,-2.1542 -10.656,-4.8659 -17.2885,-11.9106 -9.3643,-9.947 -17.3388,-24.3524 -16.6152,-21.7449 z" />
        <path
           inkscape:connector-curvature="0"
           id="path16855"
           style="fill:#ffffff;fill-rule:evenodd"
           d="m 407.1478,626.692 7.5858,-1.8061 -1.8061,14.0867 -3.3419,27.2636 -10.6778,7.7426 -40.1478,7.1647 -0.23,-42.4879 48.6178,-11.9636 z" />
        <path
           inkscape:connector-curvature="0"
           id="path16857"
           style="fill:#f7b7a3;fill-rule:evenodd"
           d="m 412.7961,640.0157 c 0.1564,0.1565 10.4587,10.5201 11.8897,16.9732 1.4409,6.5017 1.4409,8.6684 -3.9647,11.9197 -5.4056,3.2514 -10.8115,4.3355 -17.659,5.4191 -1.7597,0.2783 -3.4713,0.533 -5.0202,0.8308 l -0.004,8e-4 c -9.554,1.6101 -33.5168,5.9905 -36.1968,6.4694 -2.68,0.4801 -5.1096,-2.2209 -6.2609,-3.5039 -1.1523,-1.2822 -0.8418,-2.6166 -1.1523,-4.4887 -0.3106,-1.8728 1.7918,-2.9499 0.5126,-4.1046 -1.2801,-1.154 -0.6406,-2.6935 -0.6406,-4.8742 0,-2.1807 4.3338,-3.7706 4.3377,-3.079 0.004,0.6906 1.7698,1.4826 5.5162,1.6685 3.7464,0.1851 2.156,4.1764 5.0992,6.7416 2.9432,2.5652 17.0397,-4.8173 24.462,-7.8963 7.4225,-3.0782 17.4106,-8.4488 17.6242,-10.1998 0.193,-1.5761 1.027,-8.3984 1.4565,-11.8766 z" />
        <path
           inkscape:connector-curvature="0"
           id="path16859"
           style="fill:#f7b7a3;fill-rule:evenodd"
           d="m 357.727,573.3962 a 9.4594,13.7404 0 0 1 9.4594,13.7405 9.4594,13.7404 0 1 1 -9.4594,-13.7405 z" />
        <path
           inkscape:connector-curvature="0"
           id="path16861"
           style="fill:#f7b7a3;fill-rule:evenodd"
           d="m 349.636,575.51 a 4.0367,8.7949 0 0 1 4.0367,8.7949 4.0367,8.7949 0 1 1 -4.0367,-8.7949 z" />
        <path
           inkscape:connector-curvature="0"
           id="path16863"
           style="fill:#2a4586;fill-rule:evenodd"
           d="m 351.2246,597.2035 -0.0307,-4.6748 c -0.6817,-0.3385 -1.7326,-0.4575 -2.001,-1.0089 -0.459,-0.9424 0.5413,-1.3121 0.8037,-1.9304 -0.7326,-0.8897 -2.0301,-1.0118 -2.5273,-1.9038 0.0522,-0.6116 0.6106,-1.1542 0.8258,-2.0464 0.8204,-3.4004 -2.215,-3.0011 -2.21,-5.8761 1.9577,-0.6087 3.8918,-1.7876 5.0361,-2.8769 2.0871,-1.9863 1.6403,-1.8915 2.4276,-5.3449 0.6953,-3.0507 4.6429,-8.1247 6.8714,-8.9967 -0.2705,2.4364 -0.6755,4.7168 -0.8733,7.2153 -0.2116,2.6677 -0.1013,5.1379 -0.1987,7.762 0.0351,0.2677 0.0894,0.54 0.0775,0.8126 -0.0372,0.8492 0.069,0.2615 -0.1691,0.6241 0.4195,0.1955 0.3443,1.5021 0.384,2.0343 0.3897,2.1551 0.6483,4.6424 1.473,6.6587 0.1594,0.478 0.3554,0.9243 0.5104,1.2804 l 0.4294,1.1766 c 0.4421,0.5122 1.0571,1.8131 1.501,2.4497 0.5468,0.7837 1.1984,1.5119 1.829,2.1072 0,0 1.366,1.9364 1.2718,1.0408 5.2885,2.4328 5.6341,4.4266 6.1393,4.7908 0.2897,0.4582 0.2871,0.3035 0.3811,0.8214 0.677,0.5353 1.1251,1.8793 1.4735,2.8355 0.3458,0.9499 0.769,2.3183 0.8929,3.3957 l 0.3956,4.0345 c 0.1459,3.8415 -1.1774,9.1056 -3.8565,11.4771 -1.5452,1.3674 -2.0395,1.2077 -3.1857,1.8999 4.8285,-0.4437 8.9989,-5.9495 9.7273,-6.3945 l 3.3114,-4.7194 c 0.5329,1.0639 1.3465,2.209 2.0111,3.3777 1.3061,2.2963 2.6826,5.157 3.3277,7.7738 0.2103,0.8528 0.8131,3.8804 1.1495,4.3493 2.8298,2.0947 8.2782,1.9213 11.134,-0.3933 1.5163,-1.2291 3.4174,-3.2919 3.465,-5.4194 -0.6057,0.4436 -0.9863,1.9709 -4.1221,2.0698 -3.4598,0.1094 -6.4685,-1.5378 -8.4386,-3.9486 -0.8819,-1.0787 -1.6644,-2.5286 -2.0964,-4.0909 -1.5267,-5.5214 1.5,-10.1471 3.7768,-13.9486 1.4349,-2.3959 3.0637,-5.7068 3.9585,-8.4155 1.12,-3.3897 1.9178,-6.5266 2.1668,-10.2068 0.2577,-3.8116 0.1393,-7.4682 -0.9386,-11.1287 -0.5026,-1.708 -1.001,-2.9866 -1.5457,-4.6415 -2.4149,-7.3423 -9.1331,-13.432 -17.4951,-13.4229 l -2.5685,0 c -0.1425,0.0104 -0.2843,0.0242 -0.4245,0.0426 l -5.5834,0.6046 c -6.8436,0.5353 -13.2541,5.3054 -17.3767,10.5477 -3.0312,3.8549 -5.1387,6.7563 -6.4407,12.1212 -1.1786,4.8562 -0.6184,8.6509 1.2236,12.8989 0.5831,1.3451 2.3377,3.5819 3.4595,4.6356 0.2451,0.2303 0.0826,0.0774 0.2513,0.223 0.1431,0.1231 0.2544,0.1973 0.397,0.3282 z" />
      </g>
      <path
         inkscape:connector-curvature="0"
         id="path16865"
         style="fill:#a4bceb;fill-rule:evenodd"
         d="m 217.4119,573.1421 0.2855,0.6517 71.5121,-31.3489 -0.2863,-0.652 -71.5113,31.3492 z m 58.6911,-76.9258 2.433,0 -63.838,63.838 0.2291,0.3055 -2.1025,1.5679 -8.7497,8.7497 0.6117,0 0,1.7203 -1.7186,0 -0.3334,0.8541 -0.6633,-0.2585 0.2322,-0.5956 -0.4127,0 0,1.2759 21.1972,77.9131 1.5868,-0.5698 0.2412,0.6707 -1.6401,0.5887 3.1924,11.7349 -1.66,0.4519 c -1.5324,-12.1868 -0.2795,-7.5816 -96.0264,-39.7676 l -11.511,6.4415 c 159.5724,-119.0571 78.4469,-67.1803 75.8404,-60.4605 l -61.1864,-23.8895 3.248,12.8361 -0.6909,0.1755 -3.372,-13.3302 -3.7149,-1.4502 0.2586,-0.6633 3.2417,1.2648 0.8149,0.3183 63.3595,24.7385 0.8121,0 0.777,0 1.6597,9e-4 0.8098,-0.6046 -5.9995,-22.0522 1.6597,-0.4515 5.3818,19.7804 1.7204,0.6622 2.9982,-2.2368 1.0803,-0.8048 5.8263,-4.3472 64.4074,-64.4066 z m 30.414,98.4737 0.586,0.4047 z m -78.2251,-18.2909 90.4833,28.2742 -1.3714,3.6008 -88.352,-32.913 -0.7599,1.038 z m -99.61,48.2964 68.4085,-51.031 1.0635,2.4237 0.652,-0.2855 -1.1293,-2.5753 0.6417,-0.4787 1.6084,0.6287 0.1437,0.5252 0,1.1126 0.4876,0.7073 0.007,0 20.7975,76.4473 -92.681,-27.4743 z m 70.9789,-52.2978 0.0338,0.1245 -0.3181,-0.1245 0.2843,0 z m 2.13,-2.2399 1.4536,-1.0837 -1.4536,1.4533 0,-0.3696 z m 85.1108,-71.9425 -0.2583,0.6636 z" />
      <path
         inkscape:connector-curvature="0"
         id="path16867"
         style="fill:#a4bceb;fill-rule:evenodd"
         d="m 145.5564,545.9718 c -0.0461,-8.13 -6.6742,-14.6831 -14.8031,-14.637 -8.13,0.0464 -14.6831,6.6745 -14.6367,14.8031 0.0461,8.13 6.6742,14.6831 14.8031,14.637 8.1297,-0.0464 14.6828,-6.6745 14.6367,-14.8031 z" />
      <path
         inkscape:connector-curvature="0"
         id="path16869"
         style="fill:#ffffff;fill-rule:evenodd"
         d="m 131.6762,560.7512 c 3.4848,-0.196 6.6433,-1.6043 9.0628,-3.8061 -0.0144,-0.8993 -0.0339,-1.6641 -0.035,-1.8827 -0.0183,-3.1988 -2.2951,-6.0082 -5.6046,-6.1959 -0.152,-0.009 -0.3039,-0.0114 -0.4566,-0.009 0.6221,-0.3985 1.4091,-1.6199 2.1001,-1.6241 0.3019,-10e-4 1.666,0.2003 1.8794,-0.0103 0.3726,-0.3685 0.002,-2.6319 -0.0328,-3.0865 -0.1067,-1.4022 -0.2864,-2.8128 -0.6929,-4.1625 -0.964,-3.1996 -3.681,-5.4086 -7.0847,-5.3892 -3.1596,0.0175 -5.8585,1.9988 -6.8663,4.9684 -0.8151,2.4051 -0.9846,5.1612 -0.8057,7.6782 0.0133,0.1858 1.3653,0.0719 1.5519,0.0708 1.0656,-0.006 1.5461,1.0317 2.4511,1.5983 -2.6564,-0.0134 -5.0717,1.8013 -5.7799,4.3688 -0.3235,1.1723 -0.3449,2.487 -0.2999,3.7917 2.4453,2.1721 5.6161,3.5426 9.1009,3.6984 0.504,-0.003 1.0081,-0.005 1.5122,-0.008 z" />
      <path
         inkscape:connector-curvature="0"
         id="path16871"
         style="fill:#a4bceb;fill-rule:evenodd"
         d="m 271.1465,582.8392 c -0.0444,-8.1297 -6.6728,-14.6817 -14.8025,-14.6367 -8.13,0.0472 -14.682,6.6745 -14.6359,14.8041 0.0461,8.1286 6.6734,14.682 14.8031,14.6359 8.1297,-0.0464 14.6825,-6.6744 14.6353,-14.8033 z" />
      <path
         inkscape:connector-curvature="0"
         id="path16873"
         style="fill:#ffffff;fill-rule:evenodd"
         d="m 257.2666,597.6186 c 3.4862,-0.1958 6.6436,-1.6032 9.0642,-3.8061 -0.0139,-0.8982 -0.0333,-1.663 -0.0361,-1.8816 -0.0166,-3.1996 -2.2953,-6.009 -5.6035,-6.1959 -0.152,-0.009 -0.305,-0.0111 -0.4569,-0.009 0.6221,-0.3994 1.4083,-1.6208 2.099,-1.6249 0.3019,-10e-4 1.6661,0.2002 1.8807,-0.0103 0.3727,-0.3674 10e-4,-2.6309 -0.0327,-3.0866 -0.1069,-1.4022 -0.2866,-2.8127 -0.694,-4.1625 -0.964,-3.1985 -3.681,-5.4086 -7.0839,-5.3891 -3.1604,0.0183 -5.8582,1.9987 -6.866,4.9692 -0.8163,2.4043 -0.9857,5.1601 -0.8071,7.6773 0.0133,0.1858 1.3664,0.0717 1.5533,0.0706 1.0653,-0.006 1.5447,1.0317 2.4511,1.5985 -2.6566,-0.0136 -5.0719,1.8024 -5.7801,4.3697 -0.3244,1.1711 -0.345,2.4861 -0.2997,3.7917 2.4439,2.1723 5.6158,3.5415 9.0998,3.6987 0.504,-0.003 1.0078,-0.006 1.5119,-0.01 z" />
      <path
         inkscape:connector-curvature="0"
         id="path16875"
         style="fill:#a4bceb;fill-rule:evenodd"
         d="m 301.8124,542.5978 c 0.0333,-8.1289 -6.5292,-14.7458 -14.6609,-14.7786 -8.1289,-0.0328 -14.7441,6.5306 -14.7775,14.6603 -0.0333,8.1289 6.532,14.7458 14.6609,14.7786 8.1289,0.0328 14.7469,-6.5306 14.7775,-14.6603 z" />
      <path
         inkscape:connector-curvature="0"
         id="path16877"
         style="fill:#ffffff;fill-rule:evenodd"
         d="m 290.7897,545.403 c 5.8154,-3.6564 3.3659,-13.6144 -3.691,-13.6433 -7.0596,-0.0286 -9.5869,9.91 -3.8047,13.6125 -1.8607,-0.0278 -3.6548,0.8365 -4.799,2.3057 -1.3025,1.6752 -1.3053,3.7506 -1.2748,5.7771 2.5967,2.3506 6.0377,3.7875 9.8147,3.8031 3.7909,0.0153 7.2513,-1.4042 9.8702,-3.7467 0.0416,-1.703 -0.05,-3.4277 -0.7277,-4.7929 -1.0053,-2.0232 -3.1299,-3.3318 -5.3877,-3.3155 z" />
      <path
         inkscape:connector-curvature="0"
         id="path16879"
         style="fill:#b7c6ec;fill-rule:evenodd"
         d="m 269.2691,485.0375 c 0.1167,0 0.15,-0.1528 0.0167,-0.1528 -0.1167,0 -0.15,0.1528 -0.0167,0.1528 l 0,0 z" />
      <path
         inkscape:connector-curvature="0"
         id="path16881"
         style="fill:#a4bceb;fill-rule:evenodd"
         d="m 149.1728,621.8297 c 0,-12.4996 -10.1326,-22.6322 -22.6314,-22.6322 -12.4993,0 -22.632,10.1326 -22.632,22.6322 0,12.4997 10.1327,22.632 22.632,22.632 12.4988,0 22.6314,-10.1323 22.6314,-22.632 z" />
      <path
         inkscape:connector-curvature="0"
         id="path16883"
         style="fill:#ffffff;fill-rule:evenodd"
         d="m 127.7037,644.432 c 5.3602,-0.2708 10.2278,-2.4081 13.9685,-5.773 -0.0145,-1.3816 -0.0381,-2.5569 -0.0381,-2.8935 0,-4.9182 -3.4768,-9.2592 -8.5621,-9.5753 -0.2338,-0.0155 -0.4691,-0.0205 -0.7029,-0.0183 0.9598,-0.6079 2.1812,-2.4781 3.2426,-2.4781 0.4641,0 2.5601,0.3221 2.8906,0 0.5757,-0.5627 0.0258,-4.0464 -0.0236,-4.7454 -0.152,-2.1579 -0.4158,-4.3277 -1.0295,-6.4076 -1.4536,-4.9259 -5.6119,-8.3463 -10.845,-8.3463 -4.8585,0 -9.0248,3.0219 -10.5995,7.5795 -1.2761,3.6893 -1.5605,7.9256 -1.3078,11.7965 0.0195,0.2866 2.099,0.1233 2.3865,0.1233 1.6382,0 2.3672,1.5991 3.755,2.4781 -4.0844,-0.0433 -7.8137,2.7261 -8.9254,6.667 -0.5071,1.7993 -0.5523,3.8205 -0.4937,5.8282 3.7395,3.3598 8.604,5.4941 13.9593,5.7649 0.7751,0 1.55,0 2.3251,0 z" />
      <path
         inkscape:connector-curvature="0"
         id="path16885"
         style="fill:#a4bceb;fill-rule:evenodd"
         d="m 261.1865,496.2163 c 2.5512,9.7059 11.3842,16.8653 21.888,16.8653 10.5064,0 19.3385,-7.1594 21.8889,-16.8653 l -43.7769,0 z" />
      <path
         inkscape:connector-curvature="0"
         id="path16887"
         style="fill:#ffffff;fill-rule:evenodd"
         d="m 284.2384,513.051 c 5.3598,-0.2721 10.2257,-2.408 13.9666,-5.7736 -0.0142,-1.3805 -0.0366,-2.5551 -0.0366,-2.8942 0,-3.3573 -1.6205,-6.4448 -4.2664,-8.1669 l -21.5045,0 c -1.8759,1.1841 -3.3264,3.0289 -3.9503,5.243 -0.5086,1.7966 -0.5528,3.8186 -0.4944,5.8263 3.7406,3.3605 8.6037,5.4933 13.9609,5.7654 0.7747,0 1.5497,0 2.3247,0 z" />
      <path
         inkscape:connector-curvature="0"
         id="path16889"
         style="fill:#a4bceb;fill-rule:evenodd"
         d="m 231.941,571.4215 c 0,-17.6013 -14.2682,-31.8706 -31.8695,-31.8706 -17.6014,0 -31.8706,14.2693 -31.8706,31.8706 0,17.6014 14.2692,31.8707 31.8706,31.8707 17.6013,0 31.8695,-14.2693 31.8695,-31.8707 z" />
      <path
         inkscape:connector-curvature="0"
         id="path16891"
         style="fill:#ffffff;fill-rule:evenodd"
         d="m 208.1026,577.5908 c 12.5532,-7.9675 7.1652,-29.5067 -8.1164,-29.5067 -15.2804,0 -20.6693,21.5392 -8.1164,29.5067 -4.0261,-0.0452 -7.9053,1.8416 -10.3687,5.0329 -2.8094,3.6378 -2.7941,8.1319 -2.7111,12.5202 5.6428,5.0648 13.1012,8.1483 21.2815,8.1483 8.2066,0 15.689,-3.1041 21.3389,-8.1997 0.0778,-3.687 -0.1366,-7.4185 -1.618,-10.3706 -2.1926,-4.3719 -6.8044,-7.1855 -11.6898,-7.1311 z" />
      <path
         inkscape:connector-curvature="0"
         id="path16893"
         style="fill:#a4bceb;fill-rule:evenodd"
         d="m 243.6636,651.5047 c 0,-12.4988 -10.1327,-22.6323 -22.6323,-22.6323 -12.4985,0 -22.632,10.1335 -22.632,22.6323 0,12.4996 10.1335,22.632 22.632,22.632 12.4996,0 22.6323,-10.1324 22.6323,-22.632 z" />
      <path
         inkscape:connector-curvature="0"
         id="path16895"
         style="fill:#ffffff;fill-rule:evenodd"
         d="m 226.7346,655.8857 c 8.9151,-5.6579 5.0884,-20.9528 -5.7627,-20.9528 -10.8519,-10e-4 -14.6789,15.2949 -5.7638,20.9528 -2.8597,-0.0319 -5.6139,1.3078 -7.3629,3.5743 -1.9958,2.5825 -1.9844,5.7749 -1.9258,8.8904 4.0075,3.5967 9.3042,5.7863 15.1119,5.7863 5.8285,0 11.1416,-2.2037 15.1533,-5.8221 0.0563,-2.6187 -0.0964,-5.269 -1.1487,-7.3652 -1.5572,-3.1041 -4.8318,-5.1017 -8.3013,-5.0637 z" />
      <path
         inkscape:connector-curvature="0"
         id="path16897"
         style="fill:#a4bceb;fill-rule:evenodd"
         d="m 322.3442,595.5882 c 0,-12.4994 -10.134,-22.632 -22.6342,-22.632 -12.4974,0 -22.6286,10.1326 -22.6286,22.632 0,12.4988 10.1312,22.6315 22.6286,22.6315 12.5002,0 22.6342,-10.1327 22.6342,-22.6315 z" />
      <path
         inkscape:connector-curvature="0"
         id="path16899"
         style="fill:#ffffff;fill-rule:evenodd"
         d="m 305.4144,599.9695 c 8.9148,-5.6582 5.0878,-20.954 -5.7627,-20.954 -10.8533,0 -14.6775,15.2949 -5.7627,20.954 -2.8605,-0.0319 -5.6155,1.3075 -7.3651,3.5732 -1.9941,2.5836 -1.9829,5.7749 -1.9246,8.8915 4.0075,3.5967 9.3036,5.7855 15.1107,5.7855 5.8294,0 11.1422,-2.204 15.1552,-5.8225 0.0556,-2.6186 -0.0972,-5.268 -1.1497,-7.364 -1.558,-3.1041 -4.8324,-5.1028 -8.3011,-5.0637 z" />
    </g>
  </g>
</svg>
