<?xml version="1.0" encoding="UTF-8" standalone="no"?>
<!-- Created with Inkscape (http://www.inkscape.org/) -->

<svg
   xmlns:dc="http://purl.org/dc/elements/1.1/"
   xmlns:cc="http://creativecommons.org/ns#"
   xmlns:rdf="http://www.w3.org/1999/02/22-rdf-syntax-ns#"
   xmlns:svg="http://www.w3.org/2000/svg"
   xmlns="http://www.w3.org/2000/svg"
   xmlns:sodipodi="http://sodipodi.sourceforge.net/DTD/sodipodi-0.dtd"
   xmlns:inkscape="http://www.inkscape.org/namespaces/inkscape"
   width="151.58395mm"
   height="77.322792mm"
   viewBox="0 0 537.1085 273.9784"
   id="svg17620"
   version="1.1"
   inkscape:version="0.91 r"
   sodipodi:docname="transmissionNetwor.svg">
  <defs
     id="defs17622" />
  <sodipodi:namedview
     id="base"
     pagecolor="#ffffff"
     bordercolor="#666666"
     borderopacity="1.0"
     inkscape:pageopacity="0.0"
     inkscape:pageshadow="2"
     inkscape:zoom="0.35"
     inkscape:cx="375"
     inkscape:cy="520"
     inkscape:document-units="px"
     inkscape:current-layer="layer1"
     showgrid="false"
     fit-margin-top="0"
     fit-margin-left="0"
     fit-margin-right="0"
     fit-margin-bottom="0"
     inkscape:window-width="1920"
     inkscape:window-height="1028"
     inkscape:window-x="0"
     inkscape:window-y="0"
     inkscape:window-maximized="1" />
  <metadata
     id="metadata17625">
    <rdf:RDF>
      <cc:Work
         rdf:about="">
        <dc:format>image/svg+xml</dc:format>
        <dc:type
           rdf:resource="http://purl.org/dc/dcmitype/StillImage" />
        <dc:title></dc:title>
      </cc:Work>
    </rdf:RDF>
  </metadata>
  <g
     inkscape:label="Layer 1"
     inkscape:groupmode="layer"
     id="layer1"
     transform="translate(0,-778.3838)">
    <g
       transform="translate(-39.641,724.3671)"
       id="g17547">
      <path
         inkscape:connector-curvature="0"
         id="path16761"
         style="fill:#eaf1fc;fill-rule:evenodd"
         d="m 493.0951,225.5886 c -6.0816,2.6866 -10.4036,9.2431 -10.4036,16.8561 l 0,0 c 0,7.2777 3.9497,13.5892 9.6108,16.4786 l 49.9112,0 c 18.9949,0 34.536,15.541 34.536,34.5359 l 0,0 c 0,18.9949 -15.5411,34.5359 -34.536,34.5359 l -423.2824,0 c -18.9949,0 -34.5359,-15.541 -34.5359,-34.5359 l 0,0 c 0,-18.9949 15.541,-34.5359 34.5359,-34.5359 l 12.9381,0 c 5.6611,-2.8894 9.6108,-9.2009 9.6108,-16.4786 l 0,0 c 0,-7.613 -4.322,-14.1695 -10.4036,-16.8561 l -56.8995,0 c -18.9949,0 -34.5359,-15.5411 -34.5359,-34.5359 l 0,0 c 0,-18.9949 15.541,-34.536 34.5359,-34.536 l 52.4697,0 c 5.7411,-2.8539 9.7608,-9.2137 9.7608,-16.5554 l 0,0 c 0,-7.6274 -4.3408,-14.1959 -10.4413,-16.8727 l -19.025,0 c -18.9949,0 -34.536,-15.5411 -34.536,-34.5359 l 0,0 c 0,-18.9949 15.5411,-34.536 34.536,-34.536 l 423.2824,0 c 18.9949,0 34.5359,15.5411 34.5359,34.536 l 0,0 c 0,18.9948 -15.541,34.5359 -34.5359,34.5359 l -42.164,0 c -6.1005,2.6768 -10.4414,9.2453 -10.4414,16.8727 l 0,0 c 0,7.3417 4.0198,13.7015 9.7609,16.5554 l 14.556,0 c 18.9949,0 34.536,15.5411 34.536,34.536 l 0,0 c 0,18.9948 -15.5411,34.5359 -34.536,34.5359 l -8.8399,0 z" />
      <path
         inkscape:connector-curvature="0"
         id="path16763"
         style="fill:#f7b7a3;fill-rule:evenodd"
         d="m 375.5013,305.5609 c 0.877,5.5134 2.1157,13.3444 2.1157,15.8638 0,2.0787 0.9369,4.3764 1.5662,6.5704 l 15.508,0 c 0.4247,-9.011 0.8422,-18.2191 0.7212,-23.6038 -2.825,0.0834 -5.9879,0.1177 -9.5587,0.209 -5.1463,0.1309 -8.3534,0.7262 -10.3524,0.9606 z" />
      <path
         inkscape:connector-curvature="0"
         id="path16765"
         style="fill:#f7b7a3;fill-rule:evenodd"
         d="m 407.5149,302.9536 c -0.578,6.6949 -2.7335,19.9599 -2.0616,23.3008 0.1074,0.534 0.199,1.1202 0.2803,1.7407 l -14.3634,0 c -0.6472,-5.5933 -1.4003,-13.4747 -1.4848,-23.483 7.7125,-0.148 13.2965,-0.2123 17.6295,-1.5585 z" />
      <path
         inkscape:connector-curvature="0"
         id="path16767"
         style="fill:#2a4586;fill-rule:evenodd"
         d="m 412.0266,245.3438 c 0.8837,10.6063 0.5888,44.7839 2.6514,49.2038 2.0623,4.4198 4.7148,5.0086 -1.4728,7.66 -6.1872,2.6522 -14.7323,2.3575 -28.2849,2.6522 -13.5535,0.2941 -15.6161,2.9463 -15.911,-1.4735 -0.2939,-4.4189 0.5898,-12.9636 0,-23.2761 -0.5449,-9.5339 -0.837,-15.0392 -0.6456,-20.7054 0.5971,1.5963 2.0919,2.2492 5.4658,1.304 4.8466,-1.3562 11.2437,-0.1932 21.3246,-6.7844 10.0806,-6.5915 11.631,-3.4894 14.3457,-4.8466 0.7667,-0.383 1.6257,-1.9105 2.4637,-3.9061 0.02,0.0584 0.0439,0.1126 0.0631,0.1721 z" />
      <path
         inkscape:connector-curvature="0"
         id="path16769"
         style="fill:#f7b7a3;fill-rule:evenodd"
         d="m 396.7948,115.0172 c 0.5574,6.538 21.5204,2.8843 7.6671,36.5533 -2.4607,0 -0.1812,7.5912 -2.9494,5.7851 -2.7672,-1.8058 -2.1524,0 -1.5376,3.2514 0.6153,3.2503 5.2278,6.8625 10.7628,9.0305 5.5356,2.1667 8.6108,4.6953 11.6857,9.7525 3.0751,5.0575 4.9199,6.1408 4.9199,6.1408 l 6.4579,-1.8061 -1.5376,14.0867 c 0,0 8.9182,10.4755 10.1481,16.9779 1.2297,6.5017 1.2297,8.6684 -3.3825,11.9197 -4.6127,3.2514 -9.2252,4.3355 -15.0683,5.4191 -5.8428,1.0834 -11.0706,1.8051 -9.8402,6.1408 0.5572,1.9624 1.2403,5.5549 1.7922,9.7372 l -46.7138,0 c 1.452,-5.9879 2.7927,-10.9573 2.7927,-16.6007 0,-10.1144 -0.307,-19.5055 -1.2295,-24.2021 -0.9232,-4.6956 -1.2315,-5.4181 -3.6911,-2.8895 -2.4598,2.5286 -5.2275,7.5861 -9.2249,5.78 -3.9974,-1.8069 -0.5037,-8.6778 2.571,-16.9855 1.9411,-5.2446 25.8075,-29.784 26.4281,-30.635 0.1415,-0.3245 -19.1456,-18.0711 -17.336,-17.7168 1.872,0.2781 0.9517,-5.5805 3.2347,-11.8106 2.8612,-7.806 6.1942,-17.1384 24.0507,-17.9287 z" />
      <path
         inkscape:connector-curvature="0"
         id="path16771"
         style="fill:#db9a86;fill-rule:evenodd"
         d="m 401.9114,156.6524 c -1.0968,-0.1703 -0.6015,1.4699 -0.1054,3.9546 0.3645,1.8243 2.0576,3.7622 4.5061,5.4959 -0.1992,-0.0475 -0.4032,-0.0994 -0.6129,-0.1573 -5.2004,-1.4242 -5.5194,1.5135 -7.8396,2.9388 -2.3193,1.425 0.9601,-5.8771 0.9601,-8.8151 0,-2.9387 0.0798,-6.5894 -1.5198,-5.2542 -1.6001,1.3354 -6.7998,6.5897 -8.5594,7.6585 -1.7598,1.0678 -4.2017,6.1657 -4.2017,6.1657 0,0 -1.6715,-3.8456 2.3066,-6.166 -8.2454,-7.7327 -3.5196,-4.7428 1.2328,-8.4708 2.2391,-1.8692 6.9817,-2.0364 8.5815,-3.1052 1.6008,-1.0688 0.7201,-2.939 1.4403,-2.3154 0.6766,0.5862 1.2125,0.6999 2.3389,0.4148 -0.7216,0.9214 -0.2652,1.4271 -0.3785,3.201 -0.126,1.9536 0.4391,3.4666 1.851,4.4547 z" />
      <path
         inkscape:connector-curvature="0"
         id="path16773"
         style="fill:#49f4c3;fill-rule:evenodd"
         d="m 404.5643,165.3885 c 1.7721,1.2752 3.9289,2.4289 6.2471,3.3328 5.5619,2.167 8.652,4.6956 11.7415,9.7528 3.0901,5.0577 4.9437,6.1408 4.9437,6.1408 l 6.4887,-1.8061 -1.5447,14.0867 c 0,0 8.9607,10.4755 10.197,16.9779 1.2354,6.5017 1.2354,8.6684 -3.3992,11.9197 -4.6349,3.2514 -9.2695,4.3355 -15.1403,5.4191 -5.8707,1.0834 -11.1238,1.8051 -9.8875,6.1408 1.2363,4.3337 3.0899,16.6153 2.781,25.6463 -0.2905,8.4872 -2.4919,16.0182 -3.0124,24.6902 -4.5897,-0.2736 -10.1371,-1.763 -19.3783,-1.9707 -11.1299,-0.25 -19.3299,-4.9035 -28.463,-8.0679 -0.4412,-4.6701 -0.5531,-9.3093 -0.1292,-13.5682 1.5452,-15.5327 5.8706,-23.4794 5.8706,-33.5932 0,-10.1144 -0.3082,-19.5053 -1.2351,-24.2021 -0.9276,-4.6956 -1.2372,-5.4181 -3.7086,-2.8895 -1.8918,1.9362 -7.0911,-2.3505 -9.7626,-1.6656 1.3064,-6.463 2.1543,-7.611 2.1543,-7.611 l 15.433,-26.9433 c 0,0 5.5815,-2.4972 9.779,-2.4972 0.9578,2.0031 1.913,1.1724 2.9356,14.251 9.698,-5.449 11.6645,2.3614 17.0894,-13.5433 z" />
      <path
         inkscape:connector-curvature="0"
         id="path16775"
         style="fill:#f7b7a3;fill-rule:evenodd"
         d="m 367.0237,200.0526 c 2.1623,2.1953 4.1013,4.7176 2.8749,7.9064 -1.8069,4.6956 -9.3919,6.294 -17.6997,2.6821 -8.3085,-3.6122 -22.3959,-9.9062 -27.814,-10.2671 -5.4183,-0.3616 -13.7258,-0.3616 -16.2544,-2.5286 -2.5289,-2.1677 -3.9235,-1.4608 -3.5691,-3.5865 0.3543,-2.1264 -1.7721,-2.4808 -0.8866,-3.8985 0.675,-1.079 0.5275,-1.6449 -0.2069,-1.6963 3.9902,-1.2446 1.8427,0.088 3.3967,-0.4294 1.5946,-0.5322 -0.7087,0.7087 0.5312,2.3032 1.2409,1.5946 0.3546,1.2402 -0.5312,2.4801 -0.8865,1.2409 -0.1768,0.8858 2.3035,1.5945 2.4809,0.709 6.5895,0.1392 6.7927,-2.7062 0.2033,-2.8474 2.8246,-2.3409 -0.007,-4.7651 -2.8319,-2.4235 -0.23,-2.451 2.0735,-2.9821 2.3032,-0.5312 3.0122,0.3543 4.4299,2.6579 1.4178,2.3032 0.5283,5.8645 5.8439,8.5222 5.3155,2.6578 16.1264,1.2222 23.9227,1.2222 7.7958,0 11.5168,0.8866 14.1747,3.3666 l 0.6254,0.1246 z" />
      <path
         inkscape:connector-curvature="0"
         id="path16777"
         style="fill:#36d9ab;fill-rule:evenodd"
         d="m 370.7627,195.999 c 2.2272,6.6811 18.066,31.6753 30.439,37.6146 12.373,5.9393 -6.1865,-5.9393 -12.1259,-13.1157 -5.9391,-7.1767 -22.2724,-32.1711 -18.3131,-24.4989 z" />
      <path
         inkscape:connector-curvature="0"
         id="path16779"
         style="fill:#36d9ab;fill-rule:evenodd"
         d="m 369.278,212.8267 c 0.7428,4.702 6.9295,18.8076 19.7978,27.2216 12.8686,8.4139 20.0442,11.6313 14.1059,6.4339 -2.4626,-2.1543 -10.6559,-4.8659 -17.2884,-11.9106 -9.3644,-9.947 -17.3388,-24.3525 -16.6153,-21.7449 z" />
      <path
         inkscape:connector-curvature="0"
         id="path16781"
         style="fill:#ffffff;fill-rule:evenodd"
         d="m 429.2904,184.4924 7.5858,-1.8061 -1.8061,14.0866 -3.342,27.2637 -10.6777,7.7426 -40.1479,7.1647 -0.23,-42.488 48.6179,-11.9635 z" />
      <path
         inkscape:connector-curvature="0"
         id="path16783"
         style="fill:#f7b7a3;fill-rule:evenodd"
         d="m 434.9386,197.816 c 0.1565,0.1566 10.4587,10.5202 11.8898,16.9733 1.4409,6.5017 1.4409,8.6684 -3.9647,11.9197 -5.4056,3.2514 -10.8115,4.3355 -17.659,5.4191 -1.7598,0.2783 -3.4713,0.533 -5.0202,0.8308 l -0.004,7e-4 c -9.5539,1.6101 -33.5168,5.9905 -36.1968,6.4695 -2.68,0.48 -5.1095,-2.2209 -6.2608,-3.5039 -1.1524,-1.2822 -0.8418,-2.6166 -1.1524,-4.4887 -0.3105,-1.8728 1.7919,-2.9499 0.5126,-4.1047 -1.28,-1.1539 -0.6405,-2.6934 -0.6405,-4.8741 0,-2.1808 4.3338,-3.7706 4.3377,-3.079 0.004,0.6906 1.7698,1.4826 5.5162,1.6685 3.7463,0.1851 2.156,4.1763 5.0991,6.7415 2.9432,2.5652 17.0397,-4.8173 24.462,-7.8962 7.4226,-3.0782 17.4106,-8.4488 17.6243,-10.1998 0.193,-1.5761 1.027,-8.3984 1.4564,-11.8767 z" />
      <path
         inkscape:connector-curvature="0"
         id="path16785"
         style="fill:#f7b7a3;fill-rule:evenodd"
         d="m 379.8696,131.1966 a 9.4594,13.7404 0 0 1 9.4594,13.7404 9.4594,13.7404 0 1 1 -9.4594,-13.7404 z" />
      <path
         inkscape:connector-curvature="0"
         id="path16787"
         style="fill:#f7b7a3;fill-rule:evenodd"
         d="m 371.7786,133.3103 a 4.0367,8.7949 0 0 1 4.0366,8.795 4.0367,8.7949 0 1 1 -4.0366,-8.795 z" />
      <path
         inkscape:connector-curvature="0"
         id="path16789"
         style="fill:#2a4586;fill-rule:evenodd"
         d="m 373.3671,155.0038 -0.0306,-4.6747 c -0.6818,-0.3386 -1.7326,-0.4575 -2.0011,-1.0089 -0.459,-0.9424 0.5413,-1.3121 0.8038,-1.9304 -0.7327,-0.8897 -2.0302,-1.0118 -2.5274,-1.9038 0.0523,-0.6116 0.6107,-1.1542 0.8259,-2.0465 0.8204,-3.4004 -2.215,-3.001 -2.2101,-5.876 1.9577,-0.6088 3.8918,-1.7877 5.0362,-2.8769 2.087,-1.9863 1.6402,-1.8916 2.4276,-5.3449 0.6953,-3.0507 4.6428,-8.1248 6.8714,-8.9968 -0.2706,2.4365 -0.6756,4.7169 -0.8734,7.2154 -0.2115,2.6677 -0.1012,5.1379 -0.1986,7.762 0.0351,0.2677 0.0894,0.54 0.0774,0.8126 -0.0371,0.8492 0.069,0.2614 -0.1691,0.6241 0.4196,0.1955 0.3443,1.5021 0.384,2.0343 0.3897,2.155 0.6483,4.6424 1.4731,6.6587 0.1594,0.478 0.3554,0.9242 0.5103,1.2804 l 0.4294,1.1766 c 0.4422,0.5122 1.0572,1.8131 1.5011,2.4496 0.5468,0.7838 1.1983,1.512 1.8289,2.1073 0,0 1.3661,1.9364 1.2719,1.0408 5.2885,2.4328 5.6341,4.4266 6.1393,4.7908 0.2897,0.4582 0.2871,0.3035 0.3811,0.8214 0.677,0.5353 1.1251,1.8793 1.4735,2.8354 0.3458,0.95 0.769,2.3184 0.8928,3.3958 l 0.3956,4.0345 c 0.1459,3.8415 -1.1773,9.1056 -3.8565,11.4771 -1.5452,1.3674 -2.0395,1.2077 -3.1857,1.8998 4.8286,-0.4436 8.9989,-5.9494 9.7274,-6.3944 l 3.3113,-4.7194 c 0.533,1.0638 1.3466,2.209 2.0112,3.3777 1.3061,2.2963 2.6825,5.1569 3.3277,7.7738 0.2102,0.8528 0.813,3.8804 1.1495,4.3492 2.8298,2.0948 8.2782,1.9214 11.1339,-0.3933 1.5163,-1.229 3.4175,-3.2918 3.465,-5.4194 -0.6057,0.4437 -0.9862,1.971 -4.1221,2.0699 -3.4598,0.1093 -6.4684,-1.5379 -8.4386,-3.9486 -0.8819,-1.0787 -1.6644,-2.5286 -2.0964,-4.0909 -1.5267,-5.5214 1.5001,-10.1472 3.7769,-13.9486 1.4348,-2.3959 3.0636,-5.7068 3.9585,-8.4155 1.1199,-3.3897 1.9177,-6.5266 2.1667,-10.2069 0.2578,-3.8115 0.1394,-7.4681 -0.9385,-11.1286 -0.5026,-1.708 -1.001,-2.9866 -1.5457,-4.6415 -2.4149,-7.3423 -9.1331,-13.432 -17.4951,-13.4229 l -2.5686,0 c -0.1425,0.0104 -0.2843,0.0241 -0.4244,0.0425 l -5.5834,0.6047 c -6.8436,0.5353 -13.2542,5.3054 -17.3768,10.5477 -3.0312,3.8549 -5.1387,6.7563 -6.4406,12.1212 -1.1787,4.8562 -0.6184,8.6509 1.2235,12.8989 0.5831,1.3451 2.3378,3.5818 3.4595,4.6356 0.2452,0.2303 0.0826,0.0773 0.2514,0.223 0.143,0.123 0.2544,0.1973 0.3969,0.3281 z" />
      <path
         inkscape:connector-curvature="0"
         id="path16973"
         style="fill:#ffffff;fill-rule:evenodd"
         d="m 295.4395,189.4194 12.3771,9.87 q 2.2162,1.7673 3.9835,-0.4489 l 5.5058,-6.9043 q 1.7673,-2.2162 -0.4489,-3.9836 l -12.3771,-9.87 q -2.2162,-1.7673 -3.9836,0.4489 l -5.5057,6.9043 q -1.7674,2.2163 0.4489,3.9836 z" />
      <path
         inkscape:connector-curvature="0"
         id="path16995"
         style="fill:#2a4586;fill-rule:evenodd"
         d="m 196.3699,182.7752 c 2.0334,0.5687 4.6183,1.0226 6.84,1.1094 -0.6885,-3.941 -0.8621,-6.3597 0.1249,-10.2616 0.4778,-1.889 1.9408,-5.8658 3.0795,-7.5954 l 0.3558,-0.4509 0.3925,-0.7951 c 6.2505,0.3157 9.3543,5.8735 10.5141,11.7263 0.9518,0.3613 2.1738,1.3242 3.2111,1.5329 0.4971,0.6533 0.6387,0.4571 1.827,1.0563 0.6771,0.3413 1.1476,0.6367 1.9228,0.8172 -0.2786,-0.4158 -0.571,-0.5016 -0.9766,-0.898 -0.4305,-0.4205 -0.5644,-0.6049 -0.9438,-1.0749 -2.9412,-3.6423 -4.6679,-9.3609 -5.435,-14.0301 -0.1745,-1.0618 -0.4256,-2.2875 -0.552,-3.3409 -0.0732,-0.6097 -0.3241,-3.3011 -0.4575,-3.5793 0.5047,0.2036 0.149,-0.136 0.3378,0.5273 0.4779,1.6785 0.7659,3.3958 1.4454,5.4753 1.2922,3.9545 2.6091,7.6519 4.7132,11.1473 0.4735,0.7865 1.7586,3.0606 2.7349,3.1771 0.6784,0.0809 1.1803,0.1453 1.8738,0.1453 -0.4303,-0.6424 -2.4637,-1.5341 -4.4933,-6.6095 -1.1186,-2.7973 -3.7274,-11.9163 -3.7274,-15.0148 -0.2466,-0.3853 -0.2147,-0.4727 -0.208,-1.0106 -0.1364,-0.6036 -0.161,-1.4139 -0.2825,-2.2489 -0.1381,-0.9484 -0.2306,-1.2219 -0.2306,-2.3331 -0.4713,-0.7644 -0.4068,-2.5158 -0.5028,-3.5396 -0.1178,-1.2565 -0.1977,-2.4684 -0.3266,-3.7148 l -0.0659,-1.3575 c -0.0986,-0.8318 -0.1342,-1.9348 -0.1817,-2.8376 -0.0788,-1.4947 -0.2972,-1.5695 0.4996,-2.4237 1.8536,-1.9873 4.6212,-3.9155 6.9654,-5.4356 0.9147,-0.5933 2.822,-1.7761 3.8518,-2.1565 0.6607,-0.2584 1.0622,-0.6129 1.7306,-0.7685 -0.1297,-0.4856 -3.7711,-5.6764 -4.3472,-6.4672 -0.3286,-0.451 -0.322,-0.592 -0.8119,-0.9185 l -3.5551,-1.9247 c -2.9816,-1.231 -4.5813,-2.0515 -8.1701,-2.7897 -5.043,-1.0375 -12.3051,-1.5464 -15.6507,2.7882 l -0.8335,1.041 c -2.7694,3.1793 -3.2144,6.5848 -3.8155,10.7471 l -0.751,8.1879 c 0.002,0.7771 -0.0224,1.2056 -0.1003,1.774 l -0.187,3.4173 c 0.005,1.3169 -0.0415,2.3636 -0.1332,3.4711 -0.1785,2.1561 0.1392,8.3552 -0.1912,10.7658 -0.3507,2.5573 -0.0485,3.4701 -0.7692,6.5839 -0.6396,2.763 -2.2795,8.2673 -5.5372,9.0261 0.0445,0.5356 0.6082,1.3462 0.8653,1.73 5.2565,-2.7804 6.4868,-13.7128 6.638,-19.8919 0.0703,-2.8759 0.5731,-5.5289 0.5731,-8.3657 l 0.1442,0 c 0,7.6622 -0.3543,21.8921 -5.1692,27.8478 -1.4685,1.8164 -2.3031,1.5618 -2.9072,1.8515 0.8316,1.2415 3.175,2.8516 4.5934,3.626 0.8584,0.4688 1.9027,0.944 2.8628,1.3192 0.6243,0.244 2.5936,0.9324 3.2162,0.9433 z" />
      <path
         inkscape:connector-curvature="0"
         id="path16997"
         style="fill:#f7b7a3;fill-rule:evenodd"
         d="m 194.1979,327.9951 0.008,-0.1261 c 0.2798,-2.0115 1.1812,-4.718 1.3073,-6.6263 0.1511,-2.2977 -0.6063,-5.0516 -2.0647,-5.6848 -0.65,-0.5378 -1.529,-0.3765 -2.596,-0.3759 -0.9442,6e-4 -1.9667,0.0947 -2.8842,-0.0644 -1.0406,0.4023 -2.4914,2.1867 -3.1646,2.956 -0.8362,0.9561 -1.7527,2.3417 -2.4486,3.6071 -0.7517,1.368 -1.3062,2.609 -1.9182,4.1357 -0.2852,0.7118 -0.4955,1.4429 -0.6953,2.1787 l 14.4561,0 z" />
      <path
         inkscape:connector-curvature="0"
         id="path16999"
         style="fill:#2a4586;fill-rule:evenodd"
         d="m 179.0702,254.7499 0,18.4144 q 0,17.2928 17.2929,17.2928 l -1.9045,0 q 17.2928,0 17.2928,-17.2928 l 0,-18.4144 q 0,-17.2928 -17.2928,-17.2928 l 1.9045,0 q -17.2929,0 -17.2929,17.2928 z" />
      <path
         inkscape:connector-curvature="0"
         id="path17001"
         style="fill:#fb887a;fill-rule:evenodd"
         d="m 195.9661,180.7827 c 0,1.5859 -2.0497,13.4464 -2.3448,15.0363 -0.2146,1.1569 -0.4068,2.4846 -0.6231,3.7525 -0.2222,1.3048 -0.4764,2.5158 -0.6303,3.7446 l -1.2683,7.4812 c -1.125,6.0755 -2.0721,12.7797 -3.1989,18.6735 l -8.0742,19.4224 c -0.1267,0.2273 6.3244,-8.3613 6.3244,-8.3613 0.7098,-0.2852 3.8398,0.1851 5.199,0.1794 1.9508,-0.008 3.5654,0.1514 5.6257,0.1514 l 8.6006,-0.0222 c 0.6352,-0.0787 2.131,-0.2672 2.7929,-0.282 0,-2.4828 -1.1236,-4.0226 -0.2284,-9.6678 0.3492,-2.2008 5.2738,-16.6808 6.1764,-18.8839 0.1185,-0.2894 -5.9879,-16.9685 -6.9029,-22.1397 -0.461,-2.605 -2.1708,-11.3726 -2.35,-13.1782 -0.466,-4.7019 0.1897,-9.8459 1.3022,-14.0434 l -0.356,0.4756 c -1.1387,1.8238 -2.6016,6.0177 -3.0795,8.0098 -0.9871,4.1151 -0.8133,6.6655 -0.1251,10.8216 -2.2214,-0.0915 -4.8064,-0.57 -6.8397,-1.1698 z" />
      <path
         inkscape:connector-curvature="0"
         id="path17003"
         style="fill:#f7b7a3;fill-rule:evenodd"
         d="m 269.8659,155.5494 -1.8174,0.2376 c -1.6079,0.1724 -3.4857,0.2982 -5.2954,0.5241 -2.841,0.3547 -2.1724,-0.3876 -2.7811,3.2751 -0.2856,1.7187 -0.6434,3.4467 -0.8726,5.1828 -0.6399,4.8442 -1.9894,10.116 -3.5291,14.6377 -1.0383,3.0493 -2.2158,5.8088 -3.5786,8.5331 -1.3779,2.7547 -2.7476,5.2506 -4.394,7.7179 -0.8295,1.2431 -1.6093,2.4184 -2.4805,3.5757 -0.4335,0.5759 -0.86,1.162 -1.2955,1.7325 l -8.8213,9.3474 c -1.111,0.8941 -4.0818,3.6602 -5.1709,3.9138 -0.1082,-0.4643 -0.2556,-0.6296 -0.4302,-1.0116 -0.3298,-0.7218 -1.2622,-2.9492 -1.3004,-3.6012 -1.3507,0.5587 -1.7255,0.614 -2.7871,1.3944 -2.1008,1.544 -3.644,4.1894 -5.0083,6.2412 -0.0138,0.0208 -0.0407,0.388 -0.1302,0.1938 -0.0109,-0.0238 -0.0456,0.066 -0.068,0.0993 0.5536,0.3153 0.353,0.2077 0.7642,1.46 0.1872,0.57 0.3994,1.1129 0.5609,1.6019 l 3.3513,9.7693 c 1.7952,0 3.5266,-0.1671 5.0801,-0.5444 0.6407,-0.1556 0.9833,-0.3396 1.5973,-0.4647 0.3733,-0.3028 2.5677,-1.2175 3.247,-1.6112 4.643,-2.6907 7.2113,-6.6901 7.815,-7.0774 l 0.1442,-0.1059 2.7405,-4.1807 c 3.5736,-6.6598 3.6881,-6.568 6.5925,-14.3146 2.0346,-5.4266 4.0774,-13.4007 5.2215,-19.1453 0.1976,-0.9923 0.3641,-2.0511 0.5889,-3.0157 3.8491,-0.3202 6.8191,-6.9502 7.914,-10.2544 0.7474,-2.2557 0.3769,-1.9942 1.3102,-2.4387 l 5.0538,-2.3007 c 0,-0.8033 -0.161,-0.8449 -0.2884,-1.5026 -0.318,-0.5079 -0.1129,-0.7295 -0.5588,-1.1112 -0.123,-0.1053 -0.3795,-0.2177 -0.544,-0.3166 -0.2619,-0.1576 -0.3859,-0.2611 -0.534,-0.3855 -0.5757,-0.161 -4.4641,-2.5585 -5.1417,-2.7393 0.3141,-0.4285 -0.1883,-0.1701 1.4429,-0.4318 0.5706,-0.0915 1.0743,-0.2485 1.6442,-0.289 l 1.8165,-0.386 c 1.4956,-0.306 2.8778,-0.4019 3.6055,-1.4882 -0.0227,-1.0184 -0.3044,-1.1359 -1.3984,-0.9752 -0.5352,0.0787 -1.6307,0.2543 -2.2646,0.2543 z" />
      <path
         inkscape:connector-curvature="0"
         id="path17005"
         style="fill:#d16051;fill-rule:evenodd"
         d="m 205.7939,165.5768 c -1.232,3.98 -1.9579,8.8579 -1.442,13.3165 0.1983,1.7121 2.092,10.0259 2.6024,12.4961 3.7509,18.1517 12.1305,28.531 12.7841,27.6563 0.3528,-0.5315 0.6605,-0.9723 0.823,-1.5026 0.0249,-0.0333 0.0633,-0.1232 0.0754,-0.0993 0.0991,0.194 0.1288,-0.1731 0.1441,-0.1939 1.5109,-2.0518 3.2198,-4.6972 5.5462,-6.2412 1.1759,-0.7804 1.5908,-0.8357 3.0865,-1.3943 0.403,0.058 0.1508,0.1325 -0.3191,-1.1538 l -3.8334,-10.4144 c -0.527,-0.6383 -3.3839,-9.0718 -3.893,-10.5877 -1.206,-3.5907 -2.399,-7.2157 -3.4961,-10.9506 -1.2842,-5.8528 -4.7215,-11.4107 -11.6435,-11.7263 l -0.4346,0.7952 z" />
      <path
         inkscape:connector-curvature="0"
         id="path17007"
         style="fill:#f7b7a3;fill-rule:evenodd"
         d="m 217.5703,139.5464 c -0.5019,-2.6139 2.4602,-3.2299 4.9051,-2.457 1.7114,0.5407 3.8292,2.1238 4.1644,3.7841 0.9311,4.6159 -8.2717,2.8286 -9.0695,-1.3271 z m -0.0295,2.0881 c 2.0542,0.6394 3.4924,2.0904 4.3829,3.6589 1.0981,1.9341 1.1654,4.2272 0.5087,6.5074 2.0266,0.8333 4.3018,0.9296 6.306,1.2393 2.7141,0.4195 2.1006,-1.5042 2.1006,-5.276 0.7659,-0.0636 1.3759,-0.3868 1.875,-0.7207 0,-2.054 -0.6199,-0.8022 -0.7212,-2.0186 0.4254,-0.1134 1.8813,-1.0954 2.3077,-1.5858 -0.3193,-1.1947 -2.2469,-2.6778 0.4719,-5.2952 0.6372,-0.6132 0.6818,-0.7369 0.6818,-1.9133 -0.4016,-0.1926 -0.7967,-0.2667 -1.2516,-0.4787 -0.414,-0.1931 -0.7478,-0.3594 -1.14,-0.5906 -1.2658,-0.7471 -3.2446,-2.0362 -3.6881,-3.5218 -0.2603,-0.8718 -0.4452,-1.9425 -0.6988,-2.8583 -1.0297,0.3806 -2.937,1.5634 -3.8516,2.1565 -2.3443,1.5202 -5.1118,3.4484 -6.9654,5.4356 -0.7969,0.8543 -0.5785,0.9291 -0.4996,2.4239 0.0474,0.9028 0.083,2.0057 0.1817,2.8374 z" />
      <path
         inkscape:connector-curvature="0"
         id="path17009"
         style="fill:#fb887a;fill-rule:evenodd"
         d="m 179.8268,248.8929 c 0.8084,-0.4963 14.942,-1.5922 16.6606,-1.8436 4.305,-0.6304 8.5545,-1.0834 12.9708,-1.3255 l -0.307,-2.0857 c -0.1278,-0.779 -0.244,-1.2433 -0.3869,-1.9809 -0.0913,-0.4705 -0.1987,-1.6948 -0.3952,-2.1994 -0.6619,0.0136 -2.1577,0.1922 -2.7929,0.2673 l -8.6006,0.021 c -2.0603,0 -3.6749,-0.1514 -5.6257,-0.1437 -1.3592,0.005 -4.1694,-0.5057 -4.879,-0.2353 l -3.316,3.6519 -3.2042,5.8223 c 0.0226,0.8969 -0.394,-0.199 -0.1239,0.0516 z" />
      <path
         inkscape:connector-curvature="0"
         id="path17011"
         style="fill:#fb887a;fill-rule:evenodd"
         d="m 225.2612,198.0462 c 1.2028,-1.5238 0.765,-1.4404 2.1234,-3.708 0.2985,-0.4982 1.5044,-2.3038 1.2911,-3.0344 l -1.1251,-1.4702 c -0.3766,-0.5699 -0.6977,-0.9713 -1.0682,-1.5272 -0.3816,-0.5725 -0.6839,-0.9523 -1.067,-1.5286 -0.3732,-0.5618 -0.6611,-1.0353 -1.0443,-1.551 -0.6379,-0.8586 -3.4104,-5.9435 -3.4833,-7.186 -1.0373,-0.2086 -2.2594,-1.1716 -3.2111,-1.5329 0.9907,3.7349 2.6025,7.3601 3.6915,10.9508 0.4598,1.5158 3.4172,9.9492 3.893,10.5875 z" />
      <path
         inkscape:connector-curvature="0"
         id="path17013"
         style="fill:#f7b7a3;fill-rule:evenodd"
         d="m 216.1664,142.6437 c 1.1566,10.1181 14.4975,14.4695 13.1475,3.2314 -0.4857,-4.0429 -3.5558,-7.8967 -6.0367,-9.2137 -3.5444,-1.8816 -7.8382,-0.3819 -7.1108,5.9823 z" />
      <path
         inkscape:connector-curvature="0"
         id="path17015"
         style="fill:#f7b7a3;fill-rule:evenodd"
         d="m 219.9116,150.2101 c 0.4858,0.1941 0.8969,0.4163 1.4831,0.6486 0.5858,0.2321 1.0461,0.4018 1.6085,0.6175 0.4668,-1.9446 0.439,-3.634 -0.4454,-5.3895 -0.6086,-1.2078 -2.0005,-2.6819 -3.4755,-3.1309 0.1289,1.2464 0.2088,2.4582 0.3266,3.7147 0.096,1.0239 0.0315,2.7753 0.5027,3.5396 z" />
      <path
         inkscape:connector-curvature="0"
         id="path17017"
         style="fill:#f7b7a3;fill-rule:evenodd"
         d="m 182.4602,296.1615 0,16.4615 q 0,13.4336 13.4336,13.4336 l -13.6654,0 q 13.4336,0 13.4336,-13.4336 l 0,-16.4615 q 0,-13.4337 -13.4336,-13.4337 l 13.6654,0 q -13.4336,0 -13.4336,13.4337 z" />
      <path
         inkscape:connector-curvature="0"
         id="path17019"
         style="fill:#f7b7a3;fill-rule:evenodd"
         d="m 204.7878,327.9951 c 0.1976,-0.9005 0.3362,-1.4612 0.3972,-1.5834 l 0.036,-0.5451 c 0.28,-2.0115 1.1817,-4.7183 1.3073,-6.6265 0.1514,-2.2975 -0.606,-5.0517 -2.0642,-5.6849 -0.6502,-0.538 -1.5293,-0.3765 -2.5962,-0.3759 -0.9445,6e-4 -1.9664,0.0944 -2.8843,-0.0641 -1.0409,0.4023 -2.4913,2.1867 -3.1643,2.956 -0.8365,0.9561 -1.7532,2.3414 -2.4488,3.6068 -0.7521,1.368 -1.306,2.609 -1.918,4.1358 -0.5439,1.3572 -0.8161,2.7859 -1.2611,4.1813 l 14.5964,0 z" />
      <path
         inkscape:connector-curvature="0"
         id="path17021"
         style="fill:#f7b7a3;fill-rule:evenodd"
         d="m 193.4753,294.1588 0,16.4615 q 0,13.4337 13.4337,13.4337 l -13.6655,0 q 13.4336,0 13.4336,-13.4337 l 0,-16.4615 q 0,-13.4336 -13.4336,-13.4336 l 13.6655,0 q -13.4337,0 -13.4337,13.4336 z" />
      <path
         inkscape:connector-curvature="0"
         id="path17023"
         style="fill:#2a4586;fill-rule:evenodd"
         d="m 179.3915,255.7812 c -0.655,7.8607 -0.4364,33.1908 -1.965,36.4665 -1.5285,3.2757 -3.4943,3.7121 1.0915,5.6771 4.5856,1.9656 10.9186,1.7472 20.9629,1.9656 10.0449,0.218 11.5735,2.1836 11.7921,-1.0921 0.2178,-3.2749 -0.4371,-9.6077 0,-17.2506 0.4039,-7.0659 0.6203,-11.146 0.4785,-15.3455 -0.4425,1.1831 -1.5504,1.667 -4.0509,0.9665 -3.592,-1.0051 -8.333,-0.1432 -15.8043,-5.0281 -7.4711,-4.8852 -8.6201,-2.5862 -10.6321,-3.5921 -0.5682,-0.2838 -1.2049,-1.4159 -1.8259,-2.8949 -0.0149,0.0433 -0.0326,0.0835 -0.0468,0.1276 z" />
    </g>
  </g>
</svg>
